<svg width="1024" height="1024" viewBox="0 0 1024 1024" fill="none" xmlns="http://www.w3.org/2000/svg">
<path d="M601.829 308.402C601.921 307.449 601.852 306.287 601.624 304.919C601.269 302.801 600.984 300.534 600.767 298.118C600.55 295.778 600.198 293.52 599.713 291.344C596.919 278.797 593.386 266.679 589.113 254.991C589.093 254.936 589.084 254.878 589.087 254.82C589.091 254.762 589.106 254.705 589.131 254.653C589.157 254.601 589.193 254.555 589.237 254.518C589.281 254.481 589.332 254.454 589.387 254.438L688.788 224.964C689.022 224.897 689.235 224.77 689.409 224.595C689.583 224.42 689.711 224.203 689.782 223.964C699.425 190.813 706.8 165.153 711.907 146.984C724.772 101.245 737.494 56.0699 750.074 11.4597C750.136 11.2257 750.236 11.0707 750.373 10.9946C750.437 10.9589 750.508 10.9392 750.581 10.9372C750.654 10.9352 750.727 10.9508 750.795 10.9829C750.862 11.015 750.923 11.0627 750.972 11.1225C751.02 11.1823 751.056 11.2526 751.076 11.3281C757.057 32.8669 760.785 46.1137 762.259 51.0684C763.675 55.8359 765.803 63.2476 768.643 73.3033C775.864 98.9019 780.536 115.199 782.662 122.196C784.096 126.916 789.583 146.18 799.123 179.985C801.813 189.506 805.858 201.352 808.557 212.645C809.346 215.961 810.657 219.699 811.565 223.165C811.659 223.523 811.844 223.849 812.101 224.111C812.358 224.373 812.679 224.561 813.03 224.657C843.939 233.133 872.697 241.829 904.676 250.998C920.894 255.655 933.414 259.299 942.234 261.932C945.947 263.043 949.029 263.962 951.48 264.687C967.236 269.326 986.787 275.026 1010.14 281.789C1011.37 282.146 1013.09 282.804 1015.31 283.763C1015.37 283.79 1015.42 283.835 1015.46 283.892C1015.49 283.949 1015.51 284.016 1015.51 284.084C1015.51 284.151 1015.48 284.216 1015.44 284.27C1015.4 284.324 1015.35 284.365 1015.29 284.386C1007.4 287.094 998.202 290.16 987.702 293.582C974.374 297.922 965.156 300.95 960.049 302.664C920.489 315.925 887.907 326.756 862.302 335.156C845.241 340.754 833.253 344.992 814.907 351.178C813.97 351.494 813.299 352.363 812.893 353.785C805.889 378.301 798.603 404.68 791.034 432.923C790.845 433.625 790.617 434.178 790.348 434.581C790.203 434.8 789.992 434.962 789.746 435.043C789.501 435.125 789.236 435.119 788.994 435.029C761.642 424.739 734.124 414.876 706.44 405.441C706.092 405.321 705.778 405.119 705.521 404.851C705.265 404.582 705.075 404.255 704.966 403.896C699.288 385.218 694.075 368.4 689.328 353.442C689.036 352.524 688.514 351.793 687.76 351.249C687.714 351.22 687.665 351.199 687.614 351.187L604.271 328.215C603.869 328.104 603.51 327.87 603.242 327.544C602.974 327.217 602.81 326.815 602.772 326.39C602.326 321.178 602.178 315.495 602.326 309.341C602.332 309.119 602.223 308.929 602.001 308.771C601.943 308.727 601.896 308.671 601.866 308.606C601.836 308.542 601.824 308.471 601.829 308.402Z" fill="#CAA245"/>
<path d="M428.418 357.268C427.244 350.792 425.624 339.912 423.739 332.208C419.683 315.659 414.636 300.482 408.597 286.676C399.383 265.605 387.123 246.26 371.819 228.641C359.874 214.891 345.718 202.764 330.996 191.787C330.884 191.703 330.792 191.594 330.728 191.468C330.663 191.342 330.627 191.203 330.623 191.062C330.619 190.92 330.646 190.78 330.704 190.652C330.761 190.523 330.846 190.411 330.953 190.322C339.865 182.934 348.88 177.625 360.097 172.185C378.166 163.416 397.238 158.736 417.312 158.145C425.119 157.917 434.022 157.856 441.828 159.189C453.928 161.26 463.719 163.653 471.203 166.367C477.692 168.725 485.596 172.448 494.913 177.537C502.237 181.533 509.438 186.508 516.516 192.463C523.868 198.646 530.529 205.131 536.499 211.916C542.743 219.012 548.164 226.585 552.763 234.634C560.578 248.311 566.71 262.52 571.161 277.261C571.972 279.964 573.154 285.018 574.708 292.424C575.794 297.606 576.802 306.226 577.733 318.282C578.516 328.432 578.527 337.358 577.767 345.063C577.236 350.462 576.488 356.727 575.522 363.858C575.511 363.94 575.483 364.019 575.442 364.089C575.4 364.16 575.344 364.222 575.279 364.27C575.213 364.318 575.139 364.353 575.06 364.371C574.981 364.389 574.899 364.391 574.82 364.376C565.588 362.632 555.619 361.021 544.914 359.541C534.071 358.043 524.031 357.031 514.794 356.505C486.156 354.864 458.529 354.925 430.388 358.733C429.938 358.793 429.482 358.674 429.116 358.402C428.749 358.129 428.499 357.723 428.418 357.268Z" fill="#2E6370"/>
<path d="M104.962 699.216C104.891 699.169 104.83 699.109 104.783 699.037C104.736 698.966 104.704 698.886 104.689 698.802C104.673 698.718 104.675 698.632 104.694 698.549C104.713 698.466 104.749 698.388 104.799 698.321C114.045 685.861 121.577 674.743 130.806 662.564C137.113 654.246 143.377 645.892 149.598 637.504C159.807 623.733 173.517 605.114 190.73 581.644C190.767 581.594 190.792 581.535 190.801 581.472C190.81 581.409 190.802 581.345 190.78 581.286C190.758 581.227 190.721 581.175 190.673 581.135C190.625 581.094 190.568 581.067 190.507 581.056C179.904 579.185 169.358 576.523 158.87 573.071C149.284 569.918 139.441 565.321 129.341 559.278C116.83 551.796 105.551 543.504 95.5019 534.402C90.9489 530.278 85.9474 524.875 80.4975 518.195C75.1333 511.614 70.8488 506.013 67.644 501.391C60.863 491.634 54.759 480.4 49.3319 467.688C34.4104 432.724 29.6031 396.163 34.9102 358.005C36.2898 348.055 39.1776 334.647 42.211 324.96C48.4664 304.965 57.4125 286.512 69.0493 269.601C79.5721 254.315 93.1883 240.32 107.644 228.246C117.996 219.594 130.172 212.355 142.117 206.581C167.962 194.086 195.957 187.961 224.534 189.216C238.005 189.804 251.947 191.866 264.903 195.867C284.595 201.951 302.835 211.103 319.625 223.323C322.299 225.265 326.078 228.275 330.962 232.352C335.172 235.868 338.74 239.126 341.665 242.127C371.222 272.406 389.646 308.914 396.935 351.652C399.243 365.154 400.097 379.357 399.497 394.262C399.468 394.853 399.494 395.388 399.574 395.868C399.588 395.954 399.62 396.036 399.666 396.109C399.712 396.183 399.772 396.246 399.842 396.295C399.912 396.344 399.992 396.378 400.075 396.395C400.159 396.412 400.245 396.412 400.328 396.394C438.066 388.33 477.492 387.163 516.233 389.357C529.361 390.1 542.626 391.562 556.028 393.744C576.93 397.149 596.662 400.998 615.223 405.292C626.542 407.907 639.67 411.732 651.418 414.733C659.259 416.751 668.959 419.744 674.76 421.656C714.286 434.637 737.234 442.288 743.604 444.611C780.785 458.168 818.617 471.724 855.678 487.378C873.936 495.088 892.928 504.158 912.654 514.589C919.758 518.344 929.852 524.837 931.052 533.77C932.885 547.397 923.271 558.014 915.447 567.254C911.294 572.168 907.155 576.587 903.031 580.512C890.82 592.121 878.044 603.125 864.05 613.909C838.669 633.453 818.617 648.373 803.896 658.668C774.858 678.967 754.507 692.851 742.841 700.321C728.857 709.277 715.592 717.736 703.047 725.698C687.051 735.859 673.672 744.13 662.909 750.512C633.483 767.968 604.566 783.911 576.156 798.343C575.014 798.922 574.034 799.995 573.217 801.563C568.578 810.478 565.985 815.474 565.436 816.55C551.646 843.424 528.047 889.962 494.639 956.163C489.609 966.131 487.013 971.809 482.72 979.785C478.452 987.717 474.516 995.754 470.911 1003.9C470.867 1004 470.796 1004.08 470.706 1004.14C470.617 1004.2 470.513 1004.24 470.406 1004.24C470.299 1004.25 470.192 1004.22 470.099 1004.17C470.005 1004.12 469.927 1004.04 469.875 1003.94C463.111 991.493 456.001 978.822 448.546 965.929C444.376 958.723 434.279 940.91 418.255 912.492C410.64 898.985 400.491 881.184 387.809 859.09C379.326 844.301 367.957 824.243 353.704 798.913C349.66 791.727 345.238 784.488 341.63 777.968C332.547 761.548 324.201 746.792 316.592 733.7C309.565 721.609 304.424 711.632 297.86 700.005C297.734 699.787 297.554 699.605 297.338 699.479C297.122 699.353 296.876 699.286 296.626 699.286C184.291 699.222 120.621 699.227 105.613 699.303C105.276 699.303 105.059 699.274 104.962 699.216ZM572.18 474.27C561.255 474.348 550.809 478.935 543.139 487.022C535.469 495.109 531.204 506.034 531.281 517.393C531.359 528.751 535.773 539.614 543.552 547.59C551.332 555.567 561.839 560.004 572.764 559.926C583.688 559.848 594.134 555.261 601.804 547.174C609.474 539.087 613.739 528.162 613.662 516.804C613.585 505.445 609.171 494.582 601.391 486.606C593.612 478.629 583.104 474.192 572.18 474.27Z" fill="#2E6370"/>
<path d="M613.662 516.804C613.501 493.15 594.928 474.108 572.18 474.27C549.431 474.433 531.12 493.739 531.281 517.393C531.443 541.046 550.015 560.089 572.764 559.926C595.512 559.763 613.823 540.457 613.662 516.804Z" fill="#F6F7F9"/>
</svg>
