<svg width="1080" height="1080" viewBox="0 0 1080 1080" fill="none" xmlns="http://www.w3.org/2000/svg">
<path d="M558.599 85.3289C557.199 86.8489 555.085 87.5356 552.259 87.389C536.289 86.539 518.509 87.499 504.719 88.149C501.359 88.309 498.595 88.609 496.429 89.049C489.389 90.469 483.789 90.619 475.849 92.419C467.469 94.319 460.049 94.669 452.029 96.699C449.242 97.4056 445.502 98.1356 440.809 98.889C436.729 99.549 430.579 102.479 425.659 103.619C411.429 106.919 397.709 113.069 383.729 118.489C377.489 120.909 372.359 123.749 367.069 126.369C364.515 127.642 359.092 129.922 350.799 133.209C350.52 133.322 350.258 133.47 350.019 133.649C346.639 136.229 342.629 137.669 338.689 139.459C336.682 140.372 334.419 141.696 331.899 143.429C327.289 146.609 322.819 148.849 317.349 152.309C314.062 154.382 309.222 157.412 302.829 161.399C299.715 163.339 295.192 166.556 289.259 171.049C289.099 171.176 288.472 171.566 287.379 172.219C284.172 174.146 280.735 176.532 277.069 179.379C274.122 181.672 270.805 184.216 267.119 187.009C259.932 192.456 252.529 198.869 244.909 206.249C242.649 208.436 240.622 210.246 238.829 211.679C235.395 214.432 233.295 216.159 232.529 216.859C230.359 218.859 228.809 220.659 227.379 221.749C226.179 222.662 224.889 223.869 223.509 225.369C215.789 233.729 208.579 241.929 201.879 249.969C199.599 252.709 197.509 254.889 195.579 257.319C186.692 268.552 178.412 280.236 170.739 292.369C169.792 293.862 168.592 295.636 167.139 297.689C165.399 300.149 162.319 304.169 160.749 307.409C159.975 308.996 159.072 310.499 158.039 311.919C156.765 313.672 155.415 315.919 153.989 318.659C148.409 329.392 144.022 338.269 140.829 345.289C138.999 349.309 135.619 353.749 134.159 357.579C130.539 367.106 127.315 375.559 124.489 382.939C123.219 386.269 121.799 391.169 120.879 394.659C119.299 400.599 115.809 408.039 114.409 414.269C112.629 422.189 110.755 430.922 108.789 440.469C106.819 450.019 104.319 459.209 103.259 466.149C102.279 472.649 101.479 480.592 100.859 489.979C100.499 495.452 100.122 499.729 99.7286 502.809C98.8419 509.842 98.3486 514.116 98.2486 515.629C97.0019 534.949 96.8952 552.479 97.9286 568.219C98.5752 578.139 99.3219 587.836 100.169 597.309C101.619 613.569 105.419 630.219 108.759 646.799C110.279 654.339 112.759 660.619 114.189 667.419C115.042 671.492 116.555 676.549 118.729 682.589C122.082 691.916 125.489 700.632 128.949 708.739C130.609 712.649 132.279 718.349 133.769 721.639C139.489 734.292 143.345 742.789 145.339 747.129C146.125 748.842 147.102 750.706 148.269 752.719C152.082 759.299 159.655 771.649 170.989 789.769C175.909 797.629 181.159 804.779 186.439 812.279C187.872 814.319 191.159 818.196 196.299 823.909C197.789 825.569 199.769 828.699 201.639 830.699C210.149 839.779 216.559 848.049 225.259 856.119C228.252 858.899 233.092 863.616 239.779 870.269C243.749 874.209 247.279 876.029 251.089 880.299C252.275 881.632 253.972 883.152 256.179 884.859C259.452 887.379 263.252 890.362 267.579 893.809C272.552 897.769 276.372 900.679 279.039 902.539C284.779 906.559 290.729 910.939 297.289 915.019C301.702 917.752 304.179 919.342 304.719 919.789C305.879 920.742 307.302 921.599 308.989 922.359C309.295 922.492 310.705 923.389 313.219 925.049C315.292 926.409 317.422 927.719 319.609 928.979C323.729 931.346 331.152 935.552 341.879 941.599C347.245 944.626 353.895 947.286 361.829 949.579C368.342 953.046 374.949 956.112 381.649 958.779C410.462 970.226 440.169 978.466 470.769 983.499L513.509 989.209C513.675 989.231 513.844 989.201 513.993 989.125C514.142 989.049 514.265 988.93 514.345 988.783C514.425 988.636 514.458 988.468 514.441 988.301C514.424 988.134 514.357 987.977 514.249 987.849C513.169 986.602 512.222 985.249 511.409 983.789C509.122 979.649 506.825 975.539 504.519 971.459C503.372 969.426 502.855 966.982 502.969 964.129L519.109 992.319C519.155 992.4 519.178 992.492 519.175 992.585C519.173 992.678 519.144 992.769 519.094 992.847C519.043 992.926 518.972 992.989 518.889 993.03C518.805 993.07 518.711 993.088 518.619 993.079C503.659 991.679 490.679 990.569 474.419 987.749C462.765 985.729 453.222 983.872 445.789 982.179C427.189 977.932 411.165 973.292 397.719 968.259C384.565 963.339 370.469 957.559 355.429 950.919C333.719 941.339 315.969 930.469 294.649 916.709C283.002 909.196 271.332 900.672 259.639 891.139C231.185 867.939 205.739 841.426 183.299 811.599C178.509 805.219 174.149 798.469 169.849 792.429C161.949 781.322 154.285 768.729 146.859 754.649C138.039 737.936 129.809 719.912 122.169 700.579C119.329 693.406 116.642 685.686 114.109 677.419C111.089 667.579 108.002 655.846 104.849 642.219C101.762 628.919 99.5186 616.999 98.1186 606.459C95.7786 588.886 94.4419 571.366 94.1086 553.899C93.5586 524.609 95.0586 495.129 99.5186 466.259C100.565 459.506 102.352 450.692 104.879 439.819C107.325 429.292 109.455 420.559 111.269 413.619C114.489 401.329 120.229 385.729 126.389 371.259C135.289 350.349 143.779 330.869 154.629 313.439C157.149 309.392 158.879 306.566 159.819 304.959C162.319 300.692 164.039 297.856 164.979 296.449C175.505 280.776 182.379 270.936 185.599 266.929C189.952 261.509 193.199 257.419 195.339 254.659C200.569 247.909 207.569 240.169 212.919 234.069C215.239 231.429 217.829 228.646 220.689 225.719C233.322 212.799 246.149 200.826 259.169 189.799C261.015 188.232 264.775 185.316 270.449 181.049C271.942 179.929 275.739 177.066 281.839 172.459C294.552 162.859 309.199 153.169 325.779 143.389C328.939 141.529 339.555 135.902 357.629 126.509C360.035 125.262 367.395 121.982 379.709 116.669C388.349 112.942 395.849 109.992 402.209 107.819C417.762 102.512 432.972 98.139 447.839 94.699C450.432 94.099 455.185 93.0923 462.099 91.679C467.132 90.6523 470.452 90.0556 472.059 89.889C476.599 89.419 480.859 88.259 485.389 87.949C493.979 87.369 502.319 85.829 511.319 85.489C527.019 84.8956 542.779 84.8423 558.599 85.3289Z" fill="#2A495B"/>
<path d="M796.529 170.619C795.415 170.532 794.719 170.659 794.439 170.999C794.303 171.164 794.202 171.355 794.143 171.561C794.084 171.766 794.068 171.981 794.097 172.193C794.125 172.404 794.196 172.607 794.307 172.789C794.417 172.971 794.564 173.127 794.739 173.249C801.699 178.119 809.378 183.549 816.628 189.609C820.378 192.749 825.279 195.989 829.469 199.689C832.459 202.319 834.909 204.519 837.799 207.509C849.589 219.679 857.829 227.489 866.359 237.559C868.172 239.699 870.885 242.549 874.498 246.109C877.818 249.382 881.042 253.122 884.169 257.329C891.795 267.609 898.712 277.399 904.919 286.699C908.569 292.159 913.499 297.669 916.619 303.349C920.765 310.896 924.969 318.662 929.229 326.649C931.535 330.962 933.352 334.632 934.679 337.659C937.429 343.939 940.919 349.199 943.609 355.419C947.149 363.619 949.869 372.019 953.289 380.489C955.529 386.056 957.579 392.136 959.439 398.729C959.452 398.776 961.395 405.029 965.268 417.489C966.808 422.436 968.202 428.322 969.449 435.149C971.589 446.849 975.118 460.579 977.128 472.299C978.108 477.939 978.158 484.509 978.878 489.369C980.912 502.982 982.222 517.979 982.809 534.359C983.109 542.789 982.278 553.689 982.258 560.709C982.238 564.319 981.979 569.019 984.559 570.759C983.272 590.132 980.745 609.356 976.979 628.429C975.685 634.996 974.692 639.966 973.998 643.339C969.658 664.599 962.649 686.329 955.619 703.999C951.869 713.429 946.709 725.879 941.069 737.209C938.502 742.356 936.002 747.406 933.569 752.359C932.182 751.819 930.832 752.672 929.518 754.919C926.745 759.666 922.562 766.766 916.969 776.219C910.419 787.289 903.598 797.059 895.898 808.079C892.508 812.929 888.688 817.109 886.388 820.329C884.775 822.576 882.259 825.519 878.839 829.159C873.159 835.189 867.329 842.939 860.709 849.309C853.459 856.279 848.339 862.679 840.809 869.089C835.709 873.429 831.749 877.579 825.819 883.389C824.752 884.429 823.739 885.912 822.779 887.839C822.753 887.889 822.741 887.945 822.745 888.001C822.748 888.057 822.767 888.11 822.799 888.157C822.831 888.203 822.874 888.24 822.925 888.263C822.976 888.286 823.033 888.295 823.089 888.289L824.299 888.179C812.479 900.589 802.119 908.189 786.539 919.569C783.919 921.482 780.929 923.492 777.569 925.599C774.495 927.526 771.459 929.479 768.459 931.459L763.829 931.979C763.729 931.986 763.628 932.009 763.529 932.049C761.915 932.682 760.792 933.579 760.159 934.739C758.639 935.306 757.232 935.992 755.939 936.799C753.659 938.219 752.319 939.036 751.919 939.249C747.065 941.849 742.365 944.686 737.819 947.759C717.985 955.852 704.452 961.189 697.219 963.769C682.725 968.949 671.975 972.349 664.969 973.969C658.622 975.429 650.492 977.239 640.579 979.399C630.949 981.509 618.139 983.589 606.849 984.629C600.922 985.176 594.372 985.909 587.199 986.829C587.038 986.847 586.888 986.92 586.774 987.036C586.661 987.151 586.59 987.302 586.573 987.463C586.557 987.624 586.596 987.786 586.684 987.921C586.773 988.057 586.905 988.159 587.059 988.209L587.519 988.369L578.999 989.259C578.885 989.272 578.769 989.255 578.664 989.21C578.558 989.164 578.467 989.091 578.399 988.999C578.331 988.906 578.288 988.798 578.276 988.683C578.264 988.569 578.282 988.454 578.329 988.349C579.149 986.489 580.329 983.869 581.449 982.199C584.582 977.526 587.482 972.756 590.149 967.889C592.729 963.179 596.119 962.019 601.049 961.029C603.189 960.596 604.382 959.732 604.629 958.439C614.309 956.699 624.022 954.926 633.769 953.119C645.809 950.886 655.429 948.712 662.629 946.599C678.615 941.906 693.395 936.462 706.969 930.269C711.262 928.309 718.275 924.749 728.009 919.589C737.899 914.339 747.989 907.359 756.699 901.659C763.459 897.229 771.739 890.279 779.549 884.889C776.749 887.029 775.252 889.572 775.059 892.519C775.053 892.567 775.063 892.616 775.086 892.658C775.108 892.701 775.144 892.736 775.187 892.759C775.23 892.782 775.28 892.793 775.33 892.789C775.38 892.786 775.428 892.768 775.469 892.739C784.702 885.666 792.169 879.826 797.869 875.219C799.582 873.839 802.739 870.696 807.339 865.789C808.004 865.083 808.723 864.431 809.489 863.839C812.622 861.406 815.569 858.762 818.329 855.909C824.942 849.062 831.352 842.642 837.559 836.649C841.019 833.309 844.648 827.779 848.758 823.469C851.685 820.409 854.079 817.432 855.939 814.539C857.499 812.119 859.449 810.269 861.929 807.409C866.939 801.619 871.419 794.449 875.699 789.509C876.912 788.109 877.635 787.139 877.869 786.599C879.049 783.889 880.699 781.219 882.529 778.789C891.059 767.439 899.808 754.299 906.628 740.779C908.122 737.826 910.162 734.039 912.748 729.419C915.142 725.159 918.215 717.959 921.969 707.819C923.619 703.359 926.639 699.139 928.589 694.149C938.715 668.162 946.305 641.109 951.359 612.989C951.559 611.889 951.875 608.409 952.309 602.549C952.919 594.159 954.569 585.379 955.439 577.379C955.932 572.899 955.319 568.662 953.599 564.669L953.859 524.429C954.325 525.316 954.565 526.209 954.579 527.109C954.58 527.179 954.595 527.249 954.624 527.313C954.652 527.378 954.693 527.436 954.744 527.484C954.796 527.533 954.856 527.571 954.922 527.595C954.988 527.62 955.058 527.632 955.128 527.629H955.148C955.295 527.626 955.434 527.568 955.538 527.466C955.642 527.363 955.703 527.225 955.709 527.079C955.822 524.492 955.859 522.742 955.819 521.829C955.112 504.509 953.662 488.016 951.469 472.349C950.542 465.729 948.875 457.086 946.469 446.419C944.749 438.799 941.459 430.149 939.809 422.959C936.989 410.719 931.929 396.549 928.239 387.229C926.632 383.162 924.015 377.692 920.388 370.819C918.782 367.772 915.742 360.992 911.268 350.479C909.462 346.239 905.512 339.232 899.419 329.459C899.412 329.452 897.685 326.706 894.239 321.219C891.105 316.239 889.322 313.469 888.888 312.909C885.338 308.329 882.879 302.949 878.959 297.659C874.379 291.509 871.069 284.539 865.709 279.489C865.291 279.084 864.934 278.619 864.648 278.109C862.862 274.936 860.789 272.146 858.429 269.739C856.419 267.689 854.919 265.349 853.119 263.539C852.285 262.699 850.895 261.136 848.949 258.849C840.895 249.429 835.412 243.292 832.498 240.439C823.512 231.632 817.678 225.976 814.998 223.469C803.788 212.979 788.399 201.299 774.719 190.669L775.659 190.499C775.73 190.487 775.796 190.456 775.85 190.408C775.903 190.36 775.942 190.298 775.962 190.229C775.982 190.16 775.982 190.087 775.962 190.017C775.942 189.948 775.903 189.887 775.849 189.839C772.115 186.419 768.389 183.492 764.669 181.059C761.282 178.846 753.572 174.056 741.539 166.689C737.599 164.279 734.049 163.059 730.319 161.349C730.231 161.309 730.131 161.305 730.04 161.339C729.948 161.372 729.873 161.441 729.829 161.529L729.779 161.629C729.751 161.692 729.747 161.763 729.767 161.827C729.788 161.892 729.831 161.946 729.889 161.979C743.802 169.859 757.292 178.392 770.359 187.579C768.879 187.692 767.592 188.219 766.498 189.159C753.485 180.506 743.119 174.056 735.399 169.809C732.972 168.482 725.152 164.529 711.939 157.949C706.299 155.142 700.892 152.682 695.719 150.569C688.499 147.609 680.909 143.749 673.749 141.329C650.189 133.342 630.459 127.809 614.559 124.729C592.065 120.369 570.249 117.756 549.109 116.889C535.902 116.349 521.865 116.706 506.999 117.959C492.385 119.192 478.492 121.172 465.319 123.899C442.125 128.712 419.479 135.552 397.379 144.419C396.899 143.172 396.005 142.202 394.699 141.509C401.425 138.756 405.835 137.009 407.929 136.269C412.522 134.629 421.532 131.739 434.959 127.599C436.172 127.226 437.299 126.769 438.339 126.229C438.497 126.154 438.624 126.023 438.694 125.862C438.765 125.701 438.775 125.52 438.722 125.352C438.67 125.185 438.559 125.041 438.409 124.949C438.26 124.856 438.082 124.821 437.909 124.849C430.329 125.849 422.009 129.299 414.569 131.679C407.569 133.912 400.039 136.896 391.979 140.629C385.579 143.589 381.245 145.579 378.979 146.599C368.952 151.086 359.209 155.996 349.749 161.329C347.319 162.709 344.729 163.799 342.639 164.969C332.685 170.549 322.569 176.832 312.289 183.819C312.172 183.897 312.076 184.002 312.007 184.125C311.939 184.248 311.901 184.386 311.896 184.526C311.891 184.667 311.92 184.806 311.979 184.934C312.039 185.061 312.128 185.172 312.239 185.259C312.345 185.346 312.622 185.306 313.069 185.139C306.635 190.486 300.019 195.559 293.219 200.359C288.039 204.009 282.919 208.339 279.659 210.739C276.539 213.029 274.109 215.759 271.579 217.759C269.605 219.306 267.575 221.052 265.489 222.999C260.529 227.619 254.885 232.962 248.559 239.029C243.619 243.779 239.009 249.349 234.799 253.729C231.732 256.916 228.419 260.699 224.859 265.079C215.319 276.839 206.822 287.799 199.369 297.959C194.869 304.099 191.385 309.362 188.919 313.749C186.499 318.056 184.799 320.856 183.819 322.149C182.049 324.509 180.499 327.479 179.239 330.329C178.632 331.696 177.469 333.736 175.749 336.449C171.549 343.076 168.009 350.186 165.129 357.779C165.079 357.908 165.075 358.05 165.117 358.182C165.159 358.314 165.245 358.428 165.36 358.504C165.475 358.581 165.613 358.616 165.751 358.604C165.889 358.593 166.018 358.534 166.119 358.439L167.199 357.409C160.372 372.516 156.142 382.166 154.509 386.359C145.875 408.532 138.995 431.392 133.869 454.939C132.522 461.146 131.039 470.052 129.419 481.659C126.059 505.672 124.785 530.752 125.599 556.899C126.012 570.186 126.802 580.876 127.969 588.969C129.359 598.569 131.459 612.969 133.199 622.019C136.665 640.006 141.732 658.842 148.399 678.529C151.325 687.182 154.729 695.829 158.609 704.469C164.269 717.076 168.112 725.506 170.139 729.759C170.925 731.406 174.175 737.419 179.889 747.799C187.189 761.089 195.009 772.009 203.669 784.899C208.179 791.599 212.989 798.089 218.289 804.079C223.889 810.419 228.909 816.789 233.459 821.769C256.019 846.522 280.559 868.219 307.079 886.859C326.089 900.219 346.829 912.349 369.089 922.469C388.369 931.229 407.105 938.459 425.299 944.159C442.639 949.589 463.089 953.359 478.689 956.499C484.189 957.609 490.909 958.369 496.609 958.799C500.129 959.059 501.849 961.009 502.969 964.129C502.855 966.982 503.372 969.426 504.519 971.459C506.825 975.539 509.122 979.649 511.409 983.789C512.222 985.249 513.169 986.602 514.249 987.849C514.357 987.977 514.424 988.134 514.441 988.301C514.458 988.468 514.425 988.635 514.345 988.783C514.265 988.93 514.142 989.049 513.993 989.125C513.843 989.201 513.675 989.231 513.509 989.209L470.769 983.499L472.749 983.529C472.807 983.53 472.865 983.52 472.92 983.498C472.974 983.476 473.024 983.443 473.066 983.401C473.108 983.359 473.141 983.309 473.164 983.253C473.187 983.198 473.199 983.139 473.199 983.079V982.719C473.199 982.57 473.147 982.425 473.052 982.31C472.957 982.195 472.825 982.117 472.679 982.089C464.332 980.549 455.362 978.872 445.769 977.059C441.879 976.319 438.179 976.109 434.859 974.829C433.389 974.269 430.789 974.119 428.809 973.499C420.999 971.059 413.459 969.089 405.519 966.109C391.019 960.656 376.455 955.146 361.829 949.579C353.895 947.286 347.245 944.626 341.879 941.599C331.152 935.552 323.729 931.346 319.609 928.979C317.422 927.719 315.292 926.409 313.219 925.049C310.705 923.389 309.295 922.492 308.989 922.359C307.302 921.599 305.879 920.742 304.719 919.789C304.179 919.342 301.702 917.752 297.289 915.019C290.729 910.939 284.779 906.559 279.039 902.539C276.372 900.679 272.552 897.769 267.579 893.809C263.252 890.362 259.452 887.379 256.179 884.859C253.972 883.152 252.275 881.632 251.089 880.299C247.279 876.029 243.749 874.209 239.779 870.269C233.092 863.616 228.252 858.899 225.259 856.119C216.559 848.049 210.149 839.779 201.639 830.699C199.769 828.699 197.789 825.569 196.299 823.909C191.159 818.196 187.872 814.319 186.439 812.279C181.159 804.779 175.909 797.629 170.989 789.769C159.655 771.649 152.082 759.299 148.269 752.719C147.102 750.706 146.125 748.842 145.339 747.129C143.345 742.789 139.489 734.292 133.769 721.639C132.279 718.349 130.609 712.649 128.949 708.739C125.489 700.632 122.082 691.916 118.729 682.589C116.555 676.549 115.042 671.492 114.189 667.419C112.759 660.619 110.279 654.339 108.759 646.799C105.419 630.219 101.619 613.569 100.169 597.309C99.3219 587.836 98.5752 578.139 97.9286 568.219C96.8952 552.479 97.0019 534.949 98.2486 515.629C98.3486 514.116 98.8419 509.842 99.7286 502.809C100.122 499.729 100.499 495.452 100.859 489.979C101.479 480.592 102.279 472.649 103.259 466.149C104.319 459.209 106.819 450.019 108.789 440.469C110.755 430.922 112.629 422.189 114.409 414.269C115.809 408.039 119.299 400.599 120.879 394.659C121.799 391.169 123.219 386.269 124.489 382.939C127.315 375.559 130.539 367.106 134.159 357.579C135.619 353.749 138.999 349.309 140.829 345.289C144.022 338.269 148.409 329.392 153.989 318.659C155.415 315.919 156.765 313.672 158.039 311.919C159.072 310.499 159.975 308.996 160.749 307.409C162.319 304.169 165.399 300.149 167.139 297.689C168.592 295.636 169.792 293.862 170.739 292.369C178.412 280.236 186.692 268.552 195.579 257.319C197.509 254.889 199.599 252.709 201.879 249.969C208.579 241.929 215.789 233.729 223.509 225.369C224.889 223.869 226.179 222.662 227.379 221.749C228.809 220.659 230.359 218.859 232.529 216.859C233.295 216.159 235.395 214.432 238.829 211.679C240.622 210.246 242.649 208.436 244.909 206.249C252.529 198.869 259.932 192.456 267.119 187.009C270.805 184.216 274.122 181.672 277.069 179.379C280.735 176.532 284.172 174.146 287.379 172.219C288.472 171.566 289.099 171.176 289.259 171.049C295.192 166.556 299.715 163.339 302.829 161.399C309.222 157.412 314.062 154.382 317.349 152.309C322.819 148.849 327.289 146.609 331.899 143.429C334.419 141.696 336.682 140.372 338.689 139.459C342.629 137.669 346.639 136.229 350.019 133.649C350.258 133.47 350.52 133.322 350.799 133.209C359.092 129.922 364.515 127.642 367.069 126.369C372.359 123.749 377.489 120.909 383.729 118.489C397.709 113.069 411.429 106.919 425.659 103.619C430.579 102.479 436.729 99.5489 440.809 98.8889C445.502 98.1356 449.242 97.4056 452.029 96.6989C460.049 94.6689 467.469 94.3189 475.849 92.4189C483.789 90.6189 489.389 90.4689 496.429 89.0489C498.595 88.6089 501.359 88.3089 504.719 88.1489C518.509 87.4989 536.289 86.5389 552.259 87.3889C555.085 87.5356 557.199 86.8489 558.599 85.3289C567.869 85.7289 578.269 85.8789 586.799 87.3789C592.549 88.3889 597.569 88.6789 603.379 89.6689C613.239 91.3623 619.462 92.5223 622.049 93.1489C631.309 95.3989 641.169 97.4789 648.729 99.5489C701.949 114.119 751.519 138.249 796.529 170.619ZM630.649 123.069C631.369 123.589 632.169 123.982 633.049 124.249C654.519 130.689 675.619 137.439 695.449 145.569C695.895 145.749 696.222 145.589 696.429 145.089C696.529 144.849 696.509 144.609 696.369 144.369C696.329 144.297 696.271 144.235 696.199 144.189C686.159 138.569 676.579 135.349 664.839 131.129C655.985 127.942 644.635 125.142 630.789 122.729C630.747 122.723 630.705 122.732 630.668 122.753C630.632 122.773 630.603 122.806 630.587 122.845C630.571 122.884 630.569 122.927 630.58 122.967C630.591 123.008 630.615 123.044 630.649 123.069Z" fill="#265A6B"/>
<path d="M630.789 122.729C644.635 125.142 655.985 127.942 664.839 131.129C676.579 135.349 686.159 138.569 696.199 144.189C696.271 144.235 696.329 144.297 696.369 144.369C696.509 144.609 696.529 144.849 696.429 145.089C696.222 145.589 695.895 145.749 695.449 145.569C675.619 137.439 654.519 130.689 633.049 124.249C632.169 123.982 631.369 123.589 630.649 123.069C630.615 123.044 630.591 123.008 630.58 122.967C630.569 122.927 630.571 122.884 630.587 122.845C630.603 122.806 630.632 122.773 630.668 122.753C630.705 122.732 630.747 122.723 630.789 122.729Z" fill="#4D7F8C"/>
<path d="M394.699 141.509C393.212 142.022 391.715 142.646 390.209 143.379C389.829 143.559 385.302 145.612 376.629 149.539C368.779 153.089 361.669 156.849 356.379 159.479C354.445 160.439 352.832 161.339 351.539 162.179C347.599 164.749 343.239 166.559 339.399 168.939C335.639 171.266 331.475 173.746 326.909 176.379C322.909 178.679 317.829 182.409 313.069 185.139C312.622 185.306 312.345 185.346 312.239 185.259C312.128 185.172 312.039 185.061 311.979 184.934C311.92 184.806 311.891 184.667 311.896 184.526C311.901 184.386 311.939 184.248 312.007 184.125C312.076 184.002 312.172 183.897 312.289 183.819C322.569 176.832 332.685 170.549 342.639 164.969C344.729 163.799 347.319 162.709 349.749 161.329C359.209 155.996 368.952 151.086 378.979 146.599C381.245 145.579 385.579 143.589 391.979 140.629C400.039 136.896 407.569 133.912 414.569 131.679C422.009 129.299 430.329 125.849 437.909 124.849C438.082 124.821 438.26 124.856 438.409 124.949C438.559 125.041 438.67 125.184 438.722 125.352C438.775 125.52 438.765 125.701 438.694 125.862C438.624 126.023 438.497 126.153 438.339 126.229C437.299 126.769 436.172 127.226 434.959 127.599C421.532 131.739 412.522 134.629 407.929 136.269C405.835 137.009 401.425 138.756 394.699 141.509Z" fill="#4D7F8C"/>
<path d="M726.949 909.429C726.469 908.469 725.765 907.802 724.839 907.429C724.68 907.367 724.509 907.34 724.34 907.352C724.17 907.365 724.006 907.415 723.859 907.499C709.239 915.679 693.669 923.219 678.309 929.349C677.109 929.822 676.245 930.119 675.719 930.239C673.369 930.749 671.289 931.859 669.259 932.459C659.979 935.229 652.389 937.689 643.779 939.429C638.439 940.509 635.519 941.119 635.019 941.259C625.669 943.779 612.989 944.639 605.139 946.129C605.069 946.143 604.996 946.143 604.927 946.127C604.857 946.112 604.791 946.082 604.733 946.04C604.676 945.997 604.628 945.943 604.593 945.881C604.557 945.819 604.536 945.75 604.529 945.679C603.939 940.239 608.539 937.489 613.549 936.379C622.675 934.352 633.759 932.019 646.799 929.379C655.612 927.592 663.019 925.746 669.019 923.839C676.439 921.479 683.595 918.806 690.489 915.819C694.449 914.106 697.459 912.529 699.519 911.089C700.845 910.162 701.249 908.876 700.729 907.229C713.619 900.679 726.269 894.239 737.749 885.339C739.289 884.146 741.935 882.582 745.689 880.649C750.809 880.276 755.315 878.419 759.209 875.079C762.869 871.929 766.149 869.399 769.529 866.839C773.929 863.506 776.735 861.309 777.949 860.249C782.509 856.256 785.639 853.609 787.339 852.309C787.39 852.269 787.431 852.216 787.455 852.156C787.48 852.096 787.488 852.03 787.479 851.967C787.47 851.903 787.443 851.844 787.403 851.795C787.362 851.746 787.309 851.709 787.249 851.689L784.229 850.589C798.762 838.642 810.265 827.806 818.739 818.079C821.665 814.726 824.022 812.082 825.809 810.149C829.809 805.836 832.189 803.219 832.949 802.299C848.809 783.049 861.199 766.059 871.569 748.709C875.049 742.889 878.519 736.776 881.979 730.369C890.639 714.322 897.319 699.996 902.019 687.389C907.392 672.962 910.969 662.472 912.749 655.919C913.849 651.859 914.939 647.866 916.019 643.939C920.349 628.089 923.479 611.139 925.369 596.919C928.055 576.699 929.235 555.526 928.909 533.399C928.889 532.152 928.509 526.592 927.769 516.719C927.302 510.439 926.742 504.899 926.089 500.099C923.742 482.779 920.829 466.329 917.349 450.749C916.455 446.736 915.515 443.029 914.529 439.629C912.989 434.339 911.979 430.099 910.199 424.939C906.979 415.619 903.662 406.206 900.249 396.699C898.695 392.366 894.462 383.382 887.549 369.749C886.459 361.539 881.789 355.719 878.509 348.879C876.202 344.072 874.919 341.456 874.659 341.029C869.639 332.659 863.689 324.539 859.129 316.629C858.579 315.669 855.999 311.259 854.229 309.899C852.879 308.859 852.359 306.899 851.119 305.359C847.419 300.779 842.839 294.379 837.909 289.349C835.955 287.356 834.159 285.332 832.519 283.279C825.485 274.459 821.482 269.519 820.509 268.459C818.009 265.712 811.302 259.169 800.389 248.829C797.162 245.769 795.149 243.842 794.349 243.049C790.662 239.376 786.282 235.936 781.209 232.729C776.899 230.009 771.919 224.509 767.239 221.209C750.699 209.556 736.462 200.162 724.529 193.029C721.829 191.416 713.419 186.986 699.299 179.739C691.789 175.889 685.779 173.549 676.139 169.339C673.679 168.259 668.472 166.349 660.519 163.609C660.287 163.53 660.044 163.489 659.799 163.489C658.972 163.496 658.282 163.606 657.729 163.819C657.595 163.872 657.476 163.955 657.379 164.062C657.283 164.168 657.212 164.295 657.173 164.433C657.133 164.571 657.126 164.717 657.151 164.858C657.176 164.999 657.234 165.133 657.319 165.249L659.089 167.679C638.529 160.286 619.495 155.142 601.989 152.249C584.369 149.329 567.309 147.386 550.809 146.419C542.922 145.959 532.375 145.949 519.169 146.389C512.529 146.609 503.889 147.729 497.819 148.419C482.765 150.112 467.539 153.149 452.139 157.529C441.639 160.509 427.375 165.142 409.349 171.429C401.449 174.179 392.899 178.329 384.269 181.869C379.935 183.649 370.725 188.422 356.639 196.189C355.959 195.342 355.132 194.816 354.159 194.609C353.818 194.532 353.464 194.585 353.169 194.759C349.809 196.639 346.899 197.839 343.399 200.119C331.099 208.132 323.812 212.976 321.539 214.649C316.219 218.542 312.629 221.286 310.769 222.879C302.129 230.246 296.715 234.652 294.529 236.099C291.942 237.806 289.855 239.596 288.269 241.469C287.815 242.002 285.729 243.799 282.009 246.859C279.509 248.919 276.515 251.752 273.029 255.359C269.035 259.472 263.619 264.922 256.779 271.709C256.671 271.815 256.601 271.953 256.578 272.103C256.554 272.252 256.579 272.405 256.649 272.539C257.022 273.246 257.425 273.796 257.859 274.189C252.919 279.729 247.849 285.169 243.299 290.939C235.165 301.232 227.715 311.099 220.949 320.539C216.135 327.259 210.972 335.509 205.459 345.289C204.489 346.999 203.069 348.889 202.019 350.829C199.952 354.669 196.442 361.342 191.489 370.849C187.529 378.462 184.315 385.286 181.849 391.319C172.162 415.026 164.819 438.299 159.819 461.139C157.539 471.539 155.412 484.296 153.439 499.409C149.692 528.082 149.585 556.652 153.119 585.119C155.229 602.119 158.689 623.169 162.809 640.079C165.775 652.252 169.885 665.672 175.139 680.339C179.672 692.992 184.055 703.549 188.289 712.009C197.509 730.429 209.419 751.559 222.209 770.089C222.955 771.162 226.822 776.376 233.809 785.729C238.315 791.749 242.419 796.819 246.119 800.939C257.532 813.652 266.409 823.016 272.749 829.029C284.895 840.549 297.499 851.182 310.559 860.929C312.119 862.089 318.495 866.486 329.689 874.119C347.479 886.229 366.739 896.249 385.439 904.759C388.665 906.226 396.849 909.579 409.989 914.819C419.009 918.412 427.352 921.336 435.019 923.589C443.785 926.162 452.592 928.392 461.439 930.279C463.152 932.699 466.312 934.376 470.919 935.309C476.909 936.529 489.449 937.779 488.429 945.949C488.419 946.023 488.395 946.094 488.356 946.158C488.317 946.222 488.266 946.277 488.204 946.319C488.143 946.362 488.073 946.391 488 946.405C487.927 946.418 487.851 946.416 487.779 946.399C479.529 944.449 470.479 944.109 462.109 942.079C454.322 940.192 444.049 937.549 431.289 934.149C423.209 932.002 415.805 929.636 409.079 927.049C392.669 920.739 386.049 918.639 373.989 912.379C372.135 911.412 368.429 909.742 362.869 907.369C360.229 906.242 357.792 905.819 355.559 906.099C330.899 893.219 307.919 877.956 286.619 860.309C258.559 837.059 232.969 810.219 211.269 779.929C210.602 779.002 207.979 775.182 203.399 768.469C186.109 743.149 173.629 716.809 162.299 688.699C157.819 677.579 153.279 663.482 148.679 646.409C147.379 641.589 145.352 631.899 142.599 617.339C138.029 593.139 136.339 570.429 136.169 545.649C135.959 513.979 139.609 482.859 146.359 452.149C149.459 438.029 154.199 422.019 160.579 404.119C165.232 391.079 171.889 375.792 180.549 358.259C183.449 352.386 187.279 345.546 192.039 337.739C199.345 325.752 203.455 319.076 204.369 317.709C210.459 308.579 216.169 299.839 222.989 291.909C226.929 287.329 229.999 282.549 234.179 277.949C238.069 273.669 243.869 266.429 249.119 260.969C266.099 243.299 284.029 227.789 303.519 212.959C312.292 206.279 320.109 200.749 326.969 196.369C340.589 187.662 355.612 179.296 372.039 171.269C375.519 169.576 378.322 168.319 380.449 167.499C384.469 165.959 387.469 164.139 391.629 162.459C392.029 162.299 397.529 160.152 408.129 156.019C414.142 153.679 424.265 150.372 438.499 146.099C462.389 138.929 486.509 134.189 510.319 132.619C525.819 131.589 544.319 131.229 559.649 132.169C583.582 133.642 606.982 137.292 629.849 143.119C640.389 145.806 651.725 149.136 663.859 153.109C683.289 159.469 702.999 167.619 721.179 177.959C726.499 180.989 732.209 183.749 737.829 187.119C750.829 194.939 758.739 199.872 761.559 201.919C773.699 210.759 779.965 215.329 780.359 215.629C800.172 231.022 816.842 245.839 830.369 260.079C839.082 269.259 849.639 281.926 862.039 298.079C865.499 302.599 868.109 307.229 871.579 311.709C872.279 312.616 873.539 314.476 875.359 317.289C887.229 335.589 897.729 354.089 906.609 374.089C910.969 383.909 914.182 391.279 916.249 396.199C917.402 398.959 919.775 405.642 923.369 416.249C925.482 422.502 927.459 429.306 929.299 436.659C936.399 465.109 941.709 494.259 942.989 523.889C943.542 536.609 943.805 546.112 943.779 552.399C943.765 556.512 943.222 565.412 942.149 579.099C941.375 588.992 940.285 597.836 938.879 605.629C934.725 628.629 930.595 647.136 926.489 661.149C919.489 685.049 908.779 710.906 894.359 738.719C893.359 740.639 889.862 746.619 883.869 756.659C880.382 762.499 876.575 768.282 872.449 774.009C864.922 784.462 858.039 793.716 851.799 801.769C848.219 806.396 844.822 810.422 841.609 813.849C837.309 818.459 833.019 823.819 827.479 829.519C819.705 837.526 809.759 847.216 797.639 858.589C784.579 870.849 771.909 879.559 756.809 890.899C750.149 895.899 742.429 899.609 735.349 904.269C732.602 906.069 729.802 907.789 726.949 909.429ZM804.117 848.133C804.032 848.038 803.912 847.982 803.785 847.976C803.658 847.969 803.534 848.014 803.439 848.099L786.312 863.63C786.218 863.715 786.161 863.835 786.155 863.962C786.149 864.089 786.193 864.213 786.279 864.308L786.44 864.485C786.526 864.58 786.645 864.636 786.772 864.642C786.899 864.649 787.024 864.604 787.118 864.519L804.245 848.988C804.34 848.903 804.396 848.783 804.402 848.656C804.409 848.529 804.364 848.405 804.279 848.31L804.117 848.133ZM726.297 898.32C726.217 898.167 726.08 898.052 725.916 898C725.752 897.949 725.573 897.964 725.42 898.044L711.778 905.145C711.625 905.225 711.51 905.362 711.458 905.527C711.407 905.691 711.422 905.869 711.502 906.022L711.52 906.058C711.6 906.211 711.737 906.326 711.901 906.377C712.066 906.429 712.244 906.414 712.397 906.334L726.039 899.232C726.192 899.153 726.307 899.016 726.359 898.851C726.411 898.687 726.395 898.509 726.316 898.356L726.297 898.32Z" fill="#265A6B"/>
<path d="M394.699 141.509C396.005 142.202 396.899 143.172 397.379 144.419C381.819 151.079 372.049 155.402 368.069 157.389C356.935 162.956 347.295 168.069 339.149 172.729C335.962 174.556 328.129 179.442 315.649 187.389C310.879 190.429 307.199 193.349 301.809 197.169C284.575 209.382 267.589 223.642 250.849 239.949C233.369 256.969 214.509 279.619 199.529 301.859C191.715 313.459 186.729 321.062 184.569 324.669C180.542 331.416 174.752 342.329 167.199 357.409L166.119 358.439C166.018 358.534 165.889 358.593 165.751 358.604C165.613 358.616 165.475 358.581 165.36 358.504C165.245 358.428 165.159 358.314 165.117 358.182C165.075 358.05 165.079 357.908 165.129 357.779C168.009 350.186 171.549 343.076 175.749 336.449C177.469 333.736 178.632 331.696 179.239 330.329C180.499 327.479 182.049 324.509 183.819 322.149C184.799 320.856 186.499 318.056 188.919 313.749C191.385 309.362 194.869 304.099 199.369 297.959C206.822 287.799 215.319 276.839 224.859 265.079C228.419 260.699 231.732 256.916 234.799 253.729C239.009 249.349 243.619 243.779 248.559 239.029C254.885 232.962 260.529 227.619 265.489 222.999C267.575 221.052 269.605 219.306 271.579 217.759C274.109 215.759 276.539 213.029 279.659 210.739C282.919 208.339 288.039 204.009 293.219 200.359C300.019 195.559 306.635 190.486 313.069 185.139C317.829 182.409 322.909 178.679 326.909 176.379C331.475 173.746 335.639 171.266 339.399 168.939C343.239 166.559 347.599 164.749 351.539 162.179C352.832 161.339 354.445 160.439 356.379 159.479C361.669 156.849 368.779 153.089 376.629 149.539C385.302 145.612 389.829 143.559 390.209 143.379C391.715 142.646 393.212 142.022 394.699 141.509Z" fill="#2A495B"/>
<path d="M774.719 190.669L770.359 187.579C757.292 178.392 743.802 169.859 729.889 161.979C729.831 161.946 729.788 161.892 729.768 161.827C729.747 161.763 729.751 161.692 729.779 161.629L729.829 161.529C729.873 161.441 729.948 161.372 730.04 161.339C730.131 161.305 730.231 161.309 730.319 161.349C734.049 163.059 737.599 164.279 741.539 166.689C753.572 174.056 761.282 178.846 764.669 181.059C768.389 183.492 772.115 186.419 775.849 189.839C775.903 189.887 775.942 189.948 775.962 190.018C775.982 190.087 775.982 190.16 775.962 190.229C775.942 190.298 775.903 190.36 775.85 190.408C775.796 190.456 775.73 190.487 775.659 190.499L774.719 190.669Z" fill="#4D7F8C"/>
<path d="M887.549 369.749C883.649 361.989 879.609 353.729 875.289 346.759C872.009 341.469 869.589 336.709 865.639 330.589C840.645 291.916 809.989 258.329 773.669 229.829C767.829 225.242 759.319 219.149 748.139 211.549C720.512 192.776 690.829 178.152 659.089 167.679L657.319 165.249C657.234 165.133 657.176 164.999 657.151 164.858C657.126 164.717 657.133 164.571 657.173 164.433C657.212 164.295 657.283 164.168 657.379 164.061C657.476 163.955 657.595 163.872 657.729 163.819C658.282 163.606 658.972 163.496 659.799 163.489C660.044 163.489 660.287 163.529 660.519 163.609C668.472 166.349 673.679 168.259 676.139 169.339C685.779 173.549 691.789 175.889 699.299 179.739C713.419 186.986 721.829 191.416 724.529 193.029C736.462 200.162 750.699 209.556 767.239 221.209C771.919 224.509 776.899 230.009 781.209 232.729C786.282 235.936 790.662 239.376 794.349 243.049C795.149 243.842 797.162 245.769 800.389 248.829C811.302 259.169 818.009 265.712 820.509 268.459C821.482 269.519 825.485 274.459 832.519 283.279C834.159 285.332 835.955 287.356 837.909 289.349C842.839 294.379 847.419 300.779 851.119 305.359C852.359 306.899 852.879 308.859 854.229 309.899C855.999 311.259 858.579 315.669 859.129 316.629C863.689 324.539 869.639 332.659 874.659 341.029C874.919 341.456 876.202 344.072 878.509 348.879C881.789 355.719 886.459 361.539 887.549 369.749Z" fill="#2A495B"/>
<path d="M532.619 163.459C536.385 174.872 540.932 188.882 546.259 205.489C547.299 208.716 549.245 210.922 552.099 212.109C561.679 216.062 568.665 218.649 573.059 219.869C579.909 221.769 586.409 224.729 593.819 226.129C593.999 226.161 594.164 226.252 594.287 226.388C594.41 226.523 594.485 226.696 594.5 226.879C594.515 227.062 594.469 227.244 594.369 227.398C594.269 227.552 594.122 227.668 593.949 227.729C580.595 232.522 568.695 236.686 558.249 240.219C556.229 240.899 553.529 242.169 550.839 243.419C549.452 244.059 548.372 245.042 547.599 246.369C546.139 248.876 544.229 254.462 541.869 263.129C539.315 272.489 536.522 281.886 533.489 291.319C533.44 291.474 533.335 291.605 533.194 291.687C533.053 291.768 532.887 291.794 532.729 291.759C532.155 291.626 531.725 291.119 531.439 290.239C527.172 277.299 523.235 264.919 519.629 253.099C518.762 250.252 517.742 247.766 516.569 245.639C516.39 245.315 516.153 245.03 515.869 244.799C514.115 243.372 512.075 242.256 509.749 241.449C497.355 237.182 484.625 232.606 471.559 227.719C471.475 227.689 471.402 227.635 471.348 227.565C471.293 227.495 471.26 227.411 471.25 227.322C471.241 227.233 471.256 227.143 471.295 227.061C471.333 226.979 471.394 226.909 471.469 226.859C472.462 226.219 473.315 225.789 474.029 225.569C485.142 222.209 495.879 218.789 506.239 215.309C509.469 214.229 512.239 212.829 514.739 211.559C516.179 210.819 517.229 209.399 517.799 207.769C519.219 203.676 520.855 198.512 522.709 192.279C523.859 188.379 525.859 183.659 527.029 179.119C528.195 174.559 529.855 169.336 532.009 163.449C532.03 163.384 532.072 163.329 532.127 163.289C532.183 163.25 532.249 163.23 532.317 163.231C532.385 163.232 532.451 163.254 532.505 163.296C532.559 163.337 532.599 163.394 532.619 163.459Z" fill="#C0A15D"/>
<path d="M796.529 170.619C812.359 182.109 827.819 194.519 841.619 208.459C848.059 214.959 854.139 220.009 860.559 226.959C887.799 256.459 910.159 286.822 927.639 318.049C935.305 331.742 944.022 349.896 953.789 372.509C956.035 377.722 958.212 383.442 960.319 389.669C962.872 397.202 964.705 403.016 965.819 407.109C969.269 419.859 972.009 429.309 974.599 441.089C983.959 483.776 987.279 526.999 984.559 570.759C981.979 569.019 982.239 564.319 982.259 560.709C982.279 553.689 983.109 542.789 982.809 534.359C982.222 517.979 980.912 502.982 978.879 489.369C978.159 484.509 978.109 477.939 977.129 472.299C975.119 460.579 971.589 446.849 969.449 435.149C968.202 428.322 966.809 422.436 965.269 417.489C961.395 405.029 959.452 398.776 959.439 398.729C957.579 392.136 955.529 386.056 953.289 380.489C949.869 372.019 947.149 363.619 943.609 355.419C940.919 349.199 937.429 343.939 934.679 337.659C933.352 334.632 931.535 330.962 929.229 326.649C924.969 318.662 920.765 310.896 916.619 303.349C913.499 297.669 908.569 292.159 904.919 286.699C898.712 277.399 891.795 267.609 884.169 257.329C881.042 253.122 877.819 249.382 874.499 246.109C870.885 242.549 868.172 239.699 866.359 237.559C857.829 227.489 849.589 219.679 837.799 207.509C834.909 204.519 832.459 202.319 829.469 199.689C825.279 195.989 820.379 192.749 816.629 189.609C809.379 183.549 801.699 178.119 794.739 173.249C794.564 173.127 794.417 172.971 794.307 172.789C794.196 172.607 794.125 172.404 794.097 172.193C794.069 171.981 794.084 171.766 794.143 171.561C794.202 171.355 794.303 171.164 794.439 170.999C794.719 170.659 795.415 170.532 796.529 170.619Z" fill="#2A495B"/>
<path d="M770.359 187.579L774.719 190.669C788.399 201.299 803.789 212.979 814.999 223.469C817.679 225.976 823.512 231.632 832.499 240.439C835.412 243.292 840.895 249.429 848.949 258.849C850.895 261.136 852.285 262.699 853.119 263.539C854.919 265.349 856.419 267.689 858.429 269.739C860.789 272.146 862.862 274.936 864.649 278.109C864.934 278.619 865.291 279.084 865.709 279.489C871.069 284.539 874.379 291.509 878.959 297.659C882.879 302.949 885.339 308.329 888.889 312.909C889.322 313.469 891.105 316.239 894.239 321.219C897.685 326.706 899.412 329.452 899.419 329.459C905.512 339.232 909.462 346.239 911.269 350.479C915.742 360.992 918.782 367.772 920.389 370.819C924.015 377.692 926.632 383.162 928.239 387.229C931.929 396.549 936.989 410.719 939.809 422.959C941.459 430.149 944.749 438.799 946.469 446.419C948.875 457.086 950.542 465.729 951.469 472.349C953.662 488.016 955.112 504.509 955.819 521.829C955.859 522.742 955.822 524.492 955.709 527.079C955.704 527.225 955.643 527.363 955.538 527.466C955.434 527.568 955.295 527.626 955.149 527.629H955.129C955.058 527.632 954.988 527.62 954.922 527.595C954.856 527.571 954.796 527.533 954.744 527.484C954.693 527.436 954.652 527.378 954.624 527.313C954.595 527.249 954.58 527.179 954.579 527.109C954.565 526.209 954.325 525.316 953.859 524.429C952.919 508.489 951.282 492.629 948.949 476.849C946.482 460.129 943.215 444.539 939.149 430.079C934.549 413.699 929.075 397.482 922.729 381.429C917.462 368.089 909.505 351.819 898.859 332.619C894.392 324.559 889.322 316.372 883.649 308.059C874.469 294.592 868.909 286.642 866.969 284.209C859.819 275.209 855.569 269.399 849.759 262.999C840.479 252.799 834.649 246.509 832.269 244.129C819.409 231.262 808.115 220.826 798.389 212.819C789.642 205.612 779.012 197.726 766.499 189.159C767.592 188.219 768.879 187.692 770.359 187.579Z" fill="#2A495B"/>
<path d="M356.639 196.189C339.092 206.069 324.655 215.399 313.329 224.179C304.102 231.326 293.849 239.732 282.569 249.399C279.935 251.652 277.929 253.482 276.549 254.889C270.275 261.249 264.045 267.682 257.859 274.189C257.425 273.796 257.022 273.246 256.649 272.539C256.579 272.405 256.554 272.252 256.578 272.103C256.601 271.953 256.671 271.815 256.779 271.709C263.619 264.922 269.035 259.472 273.029 255.359C276.515 251.752 279.509 248.919 282.009 246.859C285.729 243.799 287.815 242.002 288.269 241.469C289.855 239.596 291.942 237.806 294.529 236.099C296.715 234.652 302.129 230.246 310.769 222.879C312.629 221.286 316.219 218.542 321.539 214.649C323.812 212.976 331.099 208.132 343.399 200.119C346.899 197.839 349.809 196.639 353.169 194.759C353.464 194.585 353.818 194.532 354.159 194.609C355.132 194.816 355.959 195.342 356.639 196.189Z" fill="#2A495B"/>
<path d="M346.699 223.299L360.409 215.389C360.743 215.196 361.14 215.144 361.513 215.243C361.886 215.343 362.204 215.586 362.399 215.919L395.649 273.529C395.841 273.863 395.894 274.26 395.794 274.633C395.695 275.006 395.452 275.325 395.119 275.519L380.649 283.869C380.481 283.965 380.297 284.027 380.105 284.051C379.914 284.076 379.72 284.062 379.534 284.011C379.348 283.96 379.174 283.872 379.022 283.753C378.87 283.635 378.743 283.487 378.649 283.319L346.149 225.279C345.961 224.943 345.913 224.547 346.016 224.176C346.119 223.805 346.365 223.49 346.699 223.299Z" fill="#265A6B"/>
<path d="M700.732 282.967C700.611 283.173 700.451 283.354 700.26 283.498C700.069 283.642 699.852 283.747 699.621 283.807C699.39 283.868 699.149 283.882 698.912 283.849C698.675 283.816 698.447 283.737 698.241 283.616L685.096 275.904C684.89 275.783 684.71 275.623 684.566 275.432C684.422 275.241 684.316 275.024 684.256 274.793C684.196 274.562 684.182 274.321 684.215 274.084C684.248 273.847 684.327 273.619 684.448 273.413L717.785 216.591C717.906 216.385 718.067 216.204 718.257 216.06C718.448 215.916 718.665 215.811 718.896 215.75C719.128 215.69 719.368 215.676 719.605 215.709C719.842 215.742 720.07 215.821 720.276 215.942L733.421 223.654C733.627 223.775 733.807 223.935 733.951 224.126C734.096 224.316 734.201 224.534 734.261 224.765C734.321 224.996 734.335 225.237 734.302 225.474C734.27 225.711 734.19 225.939 734.07 226.145L700.732 282.967ZM731.389 225.859L720.199 219.639C720.089 219.579 719.968 219.541 719.843 219.529C719.719 219.516 719.593 219.529 719.473 219.566C719.354 219.604 719.243 219.665 719.148 219.746C719.052 219.827 718.974 219.927 718.919 220.039C716.769 224.429 713.709 227.959 711.409 232.139C709.129 236.279 706.602 240.879 703.829 245.939C698.499 255.649 692.359 263.529 687.309 273.049C687.194 273.265 687.167 273.518 687.232 273.755C687.296 273.992 687.449 274.197 687.659 274.329L698.599 281.079C698.748 281.173 698.928 281.205 699.101 281.167C699.275 281.13 699.428 281.027 699.529 280.879C701.329 278.226 703.532 274.722 706.139 270.369C710.049 263.819 713.679 255.669 718.319 248.879C723.539 241.229 725.929 236.409 731.669 226.899C731.721 226.812 731.754 226.715 731.768 226.615C731.782 226.515 731.776 226.413 731.75 226.316C731.724 226.219 731.678 226.128 731.616 226.05C731.554 225.971 731.477 225.906 731.389 225.859Z" fill="#2A495B"/>
<path d="M731.669 226.899C725.929 236.409 723.539 241.229 718.319 248.879C713.679 255.669 710.049 263.819 706.139 270.369C703.532 274.722 701.329 278.226 699.529 280.879C699.428 281.027 699.275 281.13 699.101 281.167C698.928 281.205 698.748 281.173 698.599 281.079L687.659 274.329C687.449 274.197 687.296 273.992 687.232 273.755C687.167 273.518 687.194 273.265 687.309 273.049C692.359 263.529 698.499 255.649 703.829 245.939C706.602 240.879 709.129 236.279 711.409 232.139C713.709 227.959 716.769 224.429 718.919 220.039C718.974 219.927 719.052 219.827 719.148 219.746C719.243 219.665 719.354 219.604 719.473 219.566C719.593 219.529 719.719 219.516 719.843 219.529C719.968 219.541 720.089 219.579 720.199 219.639L731.389 225.859C731.477 225.906 731.554 225.971 731.616 226.05C731.678 226.128 731.724 226.219 731.75 226.316C731.776 226.413 731.783 226.515 731.768 226.615C731.754 226.715 731.721 226.812 731.669 226.899Z" fill="#265A6B"/>
<path d="M507.809 349.799C507.775 349.741 507.754 349.676 507.746 349.61C507.738 349.543 507.744 349.476 507.762 349.412C507.781 349.347 507.813 349.287 507.855 349.235C507.897 349.183 507.949 349.14 508.009 349.109C511.629 347.129 515.939 344.769 519.719 343.579C533.685 339.186 547.062 338.142 559.849 340.449C582.939 344.629 605.739 358.439 616.559 379.849C622.429 391.469 625.589 403.559 625.379 416.669C625.332 419.222 625.009 421.839 624.409 424.519C624.376 424.67 624.312 424.812 624.22 424.937C624.129 425.062 624.012 425.166 623.878 425.243C623.743 425.32 623.593 425.369 623.439 425.385C623.284 425.402 623.127 425.386 622.979 425.339C621.599 424.892 620.375 424.586 619.309 424.419C617.089 424.079 608.819 423.199 594.499 421.779C579.139 420.259 563.919 420.256 548.839 421.769C548.726 421.78 548.612 421.768 548.503 421.735C548.394 421.702 548.293 421.647 548.206 421.575C548.119 421.502 548.047 421.413 547.994 421.313C547.941 421.212 547.909 421.102 547.899 420.989C547.552 416.902 546.839 413.139 545.759 409.699C543.119 401.279 541.179 395.786 539.939 393.219C537.472 388.092 536.092 385.216 535.799 384.589C529.509 371.379 520.119 359.809 508.629 350.939C508.437 350.794 508.274 350.61 508.149 350.399L507.809 349.799ZM601.319 364.679C593.072 356.266 583.222 350.449 571.769 347.229C571.289 347.096 571.165 347.242 571.399 347.669C571.579 347.989 571.855 348.236 572.229 348.409C580.762 352.389 588.735 356.999 596.149 362.239C597.282 363.039 598.969 363.906 601.209 364.839C601.23 364.847 601.253 364.847 601.274 364.841C601.295 364.834 601.314 364.82 601.326 364.802C601.339 364.784 601.345 364.761 601.344 364.739C601.342 364.717 601.333 364.696 601.319 364.679Z" fill="#265A6B"/>
<path d="M612.149 626.419C611.015 626.646 610.255 626.396 609.869 625.669C609.794 625.531 609.77 625.371 609.799 625.218C609.828 625.065 609.909 624.927 610.029 624.829C611.319 623.739 612.979 622.339 614.299 621.529C626.412 614.056 636.459 607.622 644.439 602.229C651.945 597.149 660.019 591.589 668.659 585.549C672.249 583.039 676.159 580.999 679.669 578.359C686.249 573.409 694.579 569.629 701.399 564.399C707.025 560.092 714.209 555.219 722.949 549.779C735.075 542.226 748.849 532.672 764.269 521.119C768.682 517.812 772.655 513.302 776.189 507.589C776.363 507.304 776.437 506.969 776.399 506.639C776.172 504.666 775.875 503.392 775.509 502.819C772.929 498.779 769.282 495.819 764.569 493.939C758.039 491.329 751.809 489.439 744.399 486.569C734.452 482.729 727.672 480.239 724.059 479.099C693.599 469.459 668.525 461.306 648.839 454.639C642.705 452.559 638.919 451.322 637.479 450.929C627.059 448.109 620.579 445.329 610.259 443.609C607.259 443.109 601.729 441.952 593.669 440.139C588.389 438.959 583.099 439.139 577.689 439.159C574.989 439.166 571.805 439.022 568.139 438.729C561.805 438.236 553.939 437.972 544.539 437.939C538.439 437.919 532.789 437.029 532.029 430.069C531.635 426.436 531.222 422.926 530.789 419.539C530.099 414.179 527.429 405.909 526.199 401.699C522.869 390.299 516.759 381.289 507.919 373.549C502.379 368.719 498.439 365.149 492.419 362.009C487.239 359.299 477.549 354.249 470.239 352.359C455.999 348.669 441.309 347.549 427.139 351.509C419.565 353.616 413.889 355.672 410.109 357.679C402.929 361.486 396.935 365.342 392.129 369.249C386.649 373.699 383.799 377.509 379.069 383.389C375.195 388.202 372.289 393.289 370.349 398.649C367.275 407.149 365.675 412.389 365.549 414.369C365.322 417.916 364.789 424.179 363.949 433.159C362.849 444.989 366.899 457.559 371.589 468.819C372.875 471.912 374.729 475.062 377.149 478.269C383.702 486.949 391.682 494.199 401.089 500.019C406.722 503.499 415.142 507.399 426.349 511.719C427.729 512.252 429.179 513.642 430.699 515.889C430.904 516.198 430.986 516.572 430.929 516.939C430.729 518.106 429.769 519.926 428.049 522.399C425.935 525.439 423.089 528.982 419.509 533.029C414.702 538.449 412.185 541.306 411.959 541.599C406.999 548.079 400.119 555.679 394.419 563.329C392.552 565.842 390.162 568.526 387.249 571.379C386.47 572.144 385.754 572.97 385.109 573.849C375.962 586.316 370.342 593.736 368.249 596.109C360.889 604.449 353.699 613.192 346.679 622.339C344.229 625.529 341.389 628.509 338.789 631.199C338.561 631.431 338.422 631.736 338.397 632.061C338.371 632.386 338.46 632.711 338.649 632.979C340.579 635.729 341.969 637.559 343.049 639.649C347.809 648.859 354.379 657.929 358.909 667.959C359.982 670.332 361.712 673.376 364.099 677.089C369.719 685.842 374.819 694.319 379.399 702.519C386.589 715.389 389.779 720.409 396.149 732.109C397.395 734.396 399.862 738.569 403.549 744.629C406.435 749.362 409.512 754.862 412.779 761.129C414.799 765.002 416.312 767.709 417.319 769.249C419.199 772.119 422.659 777.189 424.969 781.469C427.099 785.409 428.769 788.979 431.089 792.639C435.995 800.359 440.865 808.556 445.699 817.229C452.209 828.919 457.939 838.109 463.569 847.529C463.605 847.589 463.623 847.658 463.619 847.728C463.616 847.798 463.592 847.865 463.55 847.921C463.508 847.977 463.45 848.019 463.384 848.042C463.318 848.065 463.246 848.067 463.179 848.049L459.949 847.109C451.302 832.536 442.675 817.886 434.069 803.159C432.519 800.489 431.089 797.399 429.729 795.129C415.809 771.842 402.679 749.286 390.339 727.459C373.809 698.239 356.889 669.879 338.729 638.479C337.415 636.212 336.452 634.112 335.839 632.179C335.719 631.804 335.694 631.405 335.767 631.017C335.841 630.629 336.01 630.266 336.259 629.959C340.965 624.159 344.409 619.959 346.589 617.359C352.159 610.699 356.709 604.119 362.359 597.589C363.859 595.849 365.989 593.229 368.749 589.729C383.749 570.682 398.689 552.576 413.569 535.409C415.889 532.729 417.419 530.842 418.159 529.749C421.285 525.122 424.962 520.802 429.189 516.789C429.27 516.71 429.33 516.611 429.361 516.502C429.392 516.393 429.393 516.277 429.364 516.167C429.336 516.057 429.279 515.957 429.199 515.876C429.119 515.796 429.018 515.738 428.909 515.709C404.109 509.099 382.199 494.969 370.339 472.159C364.725 461.372 361.559 449.902 360.839 437.749C360.132 425.896 361.869 414.106 366.049 402.379C367.942 397.066 369.605 393.156 371.039 390.649C374.125 385.229 378.235 379.599 383.369 373.759C394.409 361.169 411.079 351.529 426.809 347.909C461.849 339.829 499.389 353.029 519.959 383.149C530.249 398.209 534.499 416.479 534.939 434.879C534.942 435.043 534.979 435.204 535.046 435.353C535.114 435.502 535.211 435.637 535.331 435.748C535.451 435.859 535.593 435.944 535.747 436C535.901 436.055 536.065 436.078 536.229 436.069C546.609 435.456 552.129 435.126 552.789 435.079C559.842 434.606 565.362 434.392 569.349 434.439C581.695 434.566 594.495 435.999 607.749 438.739C612.469 439.712 619.655 441.699 629.309 444.699C672.899 458.259 722.959 473.829 767.099 491.099C770.379 492.386 773.845 494.342 777.499 496.969C782.389 500.489 782.109 504.149 779.469 509.129C775.249 517.099 766.599 523.879 759.269 529.109C735.859 545.809 717.369 557.639 688.719 576.269C675.839 584.649 664.339 593.099 653.729 599.559C643.889 605.559 635.489 611.569 625.089 618.039C620.715 620.759 616.402 623.552 612.149 626.419Z" fill="#2A495B"/>
<path d="M601.209 364.839C598.969 363.906 597.282 363.039 596.149 362.239C588.735 356.999 580.762 352.389 572.229 348.409C571.855 348.236 571.579 347.989 571.399 347.669C571.165 347.242 571.289 347.096 571.769 347.229C583.222 350.449 593.072 356.266 601.319 364.679C601.333 364.696 601.342 364.717 601.344 364.739C601.345 364.761 601.339 364.784 601.326 364.802C601.314 364.82 601.295 364.834 601.274 364.841C601.252 364.847 601.23 364.847 601.209 364.839Z" fill="#4D7F8C"/>
<path d="M222.039 349.849C222.137 349.678 222.268 349.528 222.424 349.408C222.581 349.288 222.759 349.2 222.95 349.149C223.14 349.098 223.339 349.085 223.534 349.111C223.73 349.136 223.918 349.2 224.089 349.299L280.579 382.049C281.039 382.315 281.458 382.64 281.814 383.006C282.169 383.372 282.454 383.771 282.651 384.18C282.848 384.59 282.953 385.002 282.961 385.393C282.97 385.784 282.88 386.146 282.699 386.459L275.689 398.549C275.507 398.862 275.237 399.119 274.894 399.306C274.55 399.493 274.14 399.606 273.687 399.638C273.234 399.671 272.746 399.622 272.252 399.495C271.758 399.368 271.268 399.166 270.809 398.899L214.319 366.159C214.148 366.061 213.998 365.929 213.878 365.773C213.758 365.617 213.67 365.438 213.619 365.248C213.568 365.058 213.555 364.859 213.58 364.663C213.606 364.468 213.67 364.28 213.769 364.109L222.039 349.849Z" fill="#265A6B"/>
<path d="M612.149 626.419L608.429 628.959C608.373 628.991 608.332 629.043 608.315 629.105C608.298 629.167 608.307 629.233 608.339 629.289C608.37 629.345 608.423 629.385 608.485 629.402C608.547 629.419 608.613 629.411 608.669 629.379C618.909 624.969 628.109 620.389 637.269 616.759C643.842 614.146 648.602 612.139 651.549 610.739C659.959 606.719 671.019 602.509 678.019 599.089C679.892 598.176 681.739 598.226 683.559 599.239C689.512 602.546 692.842 604.406 693.549 604.819C703.009 610.286 714.689 617.469 728.589 626.369C730.602 627.656 732.429 629.176 734.069 630.929C734.187 631.057 734.253 631.225 734.253 631.399C734.253 631.573 734.187 631.741 734.069 631.869L732.549 633.469C732.444 633.58 732.371 633.719 732.339 633.869C731.359 638.116 730.712 640.579 730.399 641.259C728.472 645.426 726.355 650.629 724.049 656.869C722.675 660.596 720.482 665.689 717.469 672.149C714.749 677.969 712.219 683.876 709.879 689.869C709.545 689.382 709.162 689.102 708.729 689.029C708.547 688.997 708.361 689.023 708.196 689.102C708.031 689.181 707.896 689.309 707.809 689.469C705.242 694.176 701.965 701.132 697.979 710.339C690.792 726.919 681.609 744.486 670.429 763.039C665.562 771.119 662.372 776.836 660.859 780.189C656.305 790.276 652.059 798.166 648.119 803.859C645.139 808.159 643.919 811.029 640.979 816.739C633.539 831.212 629.472 839.076 628.779 840.329C622.952 850.796 618.929 857.859 616.709 861.519C611.169 870.659 607.829 879.569 602.279 888.849C598.209 895.679 592.589 906.369 589.759 912.069C586.629 918.369 581.849 925.439 579.049 931.599C577.555 934.886 574.885 939.649 571.039 945.889C568.165 950.542 565.349 955.792 562.589 961.639C562.195 962.472 560.195 966.219 556.589 972.879C553.875 977.892 551.682 983.126 550.009 988.579L546.779 994.869C546.746 994.932 546.697 994.986 546.636 995.024C546.576 995.062 546.506 995.083 546.435 995.085C546.363 995.087 546.292 995.07 546.23 995.036C546.167 995.001 546.115 994.95 546.079 994.889L516.059 943.589C517.599 943.422 517.672 942.612 516.279 941.159C516.057 940.924 515.907 940.632 515.849 940.319C515.742 939.752 515.535 939.236 515.229 938.769C514.742 938.016 514.479 937.589 514.439 937.489C513.332 934.976 511.142 930.962 507.869 925.449C507.762 925.269 507.642 925.099 507.509 924.939C506.529 923.792 505.962 923.026 505.809 922.639C505.182 921.026 504.485 919.686 503.719 918.619C503.653 918.529 503.569 918.455 503.472 918.403C503.375 918.351 503.267 918.322 503.159 918.319C502.605 918.292 502.112 918.566 501.679 919.139L459.949 847.109L463.179 848.049C463.246 848.067 463.318 848.065 463.384 848.042C463.45 848.019 463.508 847.977 463.55 847.921C463.592 847.865 463.616 847.798 463.619 847.728C463.623 847.658 463.605 847.589 463.569 847.529C457.939 838.109 452.209 828.919 445.699 817.229C440.865 808.556 435.995 800.359 431.089 792.639C428.769 788.979 427.099 785.409 424.969 781.469C422.659 777.189 419.199 772.119 417.319 769.249C416.312 767.709 414.799 765.002 412.779 761.129C409.512 754.862 406.435 749.362 403.549 744.629C399.862 738.569 397.395 734.396 396.149 732.109C389.779 720.409 386.589 715.389 379.399 702.519C374.819 694.319 369.719 685.842 364.099 677.089C361.712 673.376 359.982 670.332 358.909 667.959C354.379 657.929 347.809 648.859 343.049 639.649C341.969 637.559 340.579 635.729 338.649 632.979C338.46 632.711 338.371 632.386 338.397 632.061C338.422 631.736 338.561 631.431 338.789 631.199C341.389 628.509 344.229 625.529 346.679 622.339C353.699 613.192 360.889 604.449 368.249 596.109C370.342 593.736 375.962 586.316 385.109 573.849C385.754 572.97 386.47 572.144 387.249 571.379C390.162 568.526 392.552 565.842 394.419 563.329C400.119 555.679 406.999 548.079 411.959 541.599C412.185 541.306 414.702 538.449 419.509 533.029C423.089 528.982 425.935 525.439 428.049 522.399C429.769 519.926 430.729 518.106 430.929 516.939C430.986 516.572 430.904 516.198 430.699 515.889C429.179 513.642 427.729 512.252 426.349 511.719C415.142 507.399 406.722 503.499 401.089 500.019C391.682 494.199 383.702 486.949 377.149 478.269C374.729 475.062 372.875 471.912 371.589 468.819C366.899 457.559 362.849 444.989 363.949 433.159C364.789 424.179 365.322 417.916 365.549 414.369C365.675 412.389 367.275 407.149 370.349 398.649C372.289 393.289 375.195 388.202 379.069 383.389C383.799 377.509 386.649 373.699 392.129 369.249C396.935 365.342 402.929 361.486 410.109 357.679C413.889 355.672 419.565 353.616 427.139 351.509C441.309 347.549 455.999 348.669 470.239 352.359C477.549 354.249 487.239 359.299 492.419 362.009C498.439 365.149 502.379 368.719 507.919 373.549C516.759 381.289 522.869 390.299 526.199 401.699C527.429 405.909 530.099 414.179 530.789 419.539C531.222 422.926 531.635 426.436 532.029 430.069C532.789 437.029 538.439 437.919 544.539 437.939C553.939 437.972 561.805 438.236 568.139 438.729C571.805 439.022 574.989 439.166 577.689 439.159C583.099 439.139 588.389 438.959 593.669 440.139C601.729 441.952 607.259 443.109 610.259 443.609C620.579 445.329 627.059 448.109 637.479 450.929C638.919 451.322 642.705 452.559 648.839 454.639C668.525 461.306 693.599 469.459 724.059 479.099C727.672 480.239 734.452 482.729 744.399 486.569C751.809 489.439 758.039 491.329 764.569 493.939C769.282 495.819 772.929 498.779 775.509 502.819C775.875 503.392 776.172 504.666 776.399 506.639C776.437 506.969 776.363 507.304 776.189 507.589C772.655 513.302 768.682 517.812 764.269 521.119C748.849 532.672 735.075 542.226 722.949 549.779C714.209 555.219 707.025 560.092 701.399 564.399C694.579 569.629 686.249 573.409 679.669 578.359C676.159 580.999 672.249 583.039 668.659 585.549C660.019 591.589 651.945 597.149 644.439 602.229C636.459 607.622 626.412 614.056 614.299 621.529C612.979 622.339 611.319 623.739 610.029 624.829C609.909 624.927 609.828 625.065 609.799 625.218C609.77 625.371 609.794 625.531 609.869 625.669C610.255 626.396 611.015 626.646 612.149 626.419ZM585.169 481.819C579.959 492.759 580.949 502.829 591.229 510.059C594.542 512.379 598.615 513.359 603.449 512.999C616.809 511.999 625.489 501.949 623.059 488.419C621.259 478.399 613.089 470.659 602.509 470.709C594.689 470.739 588.459 474.919 585.169 481.819Z" fill="#265A6B"/>
<path d="M865.78 363.406C865.927 363.661 866.022 363.942 866.061 364.234C866.099 364.525 866.08 364.822 866.004 365.106C865.928 365.39 865.796 365.656 865.617 365.89C865.438 366.123 865.215 366.319 864.96 366.466L807.577 399.596C807.322 399.743 807.041 399.838 806.75 399.877C806.458 399.915 806.162 399.896 805.877 399.82C805.593 399.743 805.327 399.612 805.094 399.433C804.86 399.254 804.664 399.031 804.517 398.776L797.217 386.132C797.07 385.877 796.975 385.596 796.936 385.304C796.898 385.013 796.917 384.716 796.994 384.432C797.07 384.148 797.201 383.882 797.38 383.648C797.559 383.415 797.782 383.219 798.037 383.072L855.42 349.942C855.675 349.795 855.956 349.699 856.248 349.661C856.539 349.623 856.836 349.642 857.12 349.718C857.404 349.794 857.67 349.926 857.904 350.105C858.137 350.284 858.333 350.507 858.48 350.762L865.78 363.406ZM857.029 355.379L856.509 354.479C856.475 354.422 856.421 354.381 856.357 354.364C856.293 354.347 856.226 354.356 856.169 354.389L801.779 385.789C801.664 385.858 801.59 385.984 801.571 386.139C801.552 386.295 801.591 386.467 801.679 386.619L801.779 386.799C801.868 386.95 801.998 387.069 802.142 387.128C802.286 387.188 802.432 387.185 802.549 387.119L856.939 355.719C856.995 355.686 857.037 355.631 857.053 355.567C857.07 355.504 857.061 355.436 857.029 355.379Z" fill="#265A6B"/>
<path d="M857.029 355.379C857.061 355.436 857.07 355.504 857.053 355.567C857.037 355.631 856.995 355.686 856.939 355.719L802.549 387.119C802.432 387.185 802.286 387.188 802.142 387.128C801.998 387.069 801.868 386.95 801.779 386.799L801.679 386.619C801.591 386.467 801.552 386.295 801.571 386.139C801.59 385.984 801.664 385.858 801.779 385.789L856.169 354.389C856.226 354.356 856.293 354.347 856.357 354.364C856.421 354.381 856.475 354.422 856.509 354.479L857.029 355.379Z" fill="#4D7F8C"/>
<path d="M585.169 481.819C588.459 474.919 594.689 470.739 602.509 470.709C613.089 470.659 621.259 478.399 623.059 488.419C625.489 501.949 616.809 511.999 603.449 512.999C598.615 513.359 594.542 512.379 591.229 510.059C580.949 502.829 579.959 492.759 585.169 481.819ZM608.713 474.713C604.224 473.177 599.296 473.523 595.013 475.676C590.729 477.829 587.442 481.612 585.873 486.194C585.096 488.463 584.765 490.859 584.898 493.246C585.031 495.633 585.626 497.965 586.648 500.107C587.671 502.249 589.101 504.161 590.857 505.732C592.613 507.303 594.661 508.503 596.884 509.264C601.373 510.801 606.301 510.455 610.584 508.302C614.868 506.149 618.155 502.366 619.724 497.784C620.501 495.515 620.832 493.119 620.699 490.732C620.566 488.344 619.971 486.013 618.949 483.871C617.927 481.729 616.496 479.817 614.74 478.246C612.984 476.675 610.936 475.474 608.713 474.713Z" fill="#2A495B"/>
<path d="M619.724 497.784C622.991 488.243 618.061 477.914 608.713 474.713C599.366 471.513 589.14 476.653 585.873 486.194C582.606 495.735 587.536 506.064 596.884 509.264C606.232 512.465 616.457 507.325 619.724 497.784Z" fill="#F7F9F3"/>
<path d="M237.263 532.779L169.043 532.898C168.623 532.899 168.284 533.24 168.284 533.66L168.313 549.98C168.314 550.399 168.654 550.739 169.074 550.738L237.294 550.619C237.714 550.619 238.054 550.278 238.053 549.858L238.024 533.538C238.024 533.118 237.683 532.779 237.263 532.779Z" fill="#265A6B"/>
<path d="M909.787 532.662L842.928 532.896C841.906 532.899 841.08 533.73 841.084 534.752L841.134 548.972C841.137 549.994 841.968 550.819 842.99 550.816L909.85 550.582C910.871 550.579 911.697 549.747 911.693 548.726L911.644 534.506C911.64 533.484 910.809 532.659 909.787 532.662Z" fill="#265A6B"/>
<path d="M779.549 884.889C785.722 879.802 791.935 874.682 798.189 869.529C801.222 867.029 811.179 857.576 828.059 841.169C831.019 838.289 834.359 834.792 838.079 830.679C841.709 826.669 847.139 821.469 851.149 816.429C852.609 814.596 855.312 811.436 859.259 806.949C862.079 803.742 865.472 799.436 869.439 794.029C878.179 782.119 883.109 774.699 892.519 759.959C898.699 750.289 902.999 740.869 908.339 731.739C910.025 728.846 911.952 724.989 914.119 720.169C920.319 706.369 924.989 695.056 928.129 686.229C931.929 675.536 936.015 662.689 940.389 647.689C941.349 644.382 942.295 640.456 943.229 635.909C944.129 631.522 944.955 627.562 945.709 624.029C949.855 604.456 952.485 584.669 953.599 564.669C955.319 568.662 955.932 572.899 955.439 577.379C954.569 585.379 952.919 594.159 952.309 602.549C951.875 608.409 951.559 611.889 951.359 612.989C946.305 641.109 938.715 668.162 928.589 694.149C926.639 699.139 923.619 703.359 921.969 707.819C918.215 717.959 915.142 725.159 912.749 729.419C910.162 734.039 908.122 737.826 906.629 740.779C899.809 754.299 891.059 767.439 882.529 778.789C880.699 781.219 879.049 783.889 877.869 786.599C877.635 787.139 876.912 788.109 875.699 789.509C871.419 794.449 866.939 801.619 861.929 807.409C859.449 810.269 857.499 812.119 855.939 814.539C854.079 817.432 851.685 820.409 848.759 823.469C844.649 827.779 841.019 833.309 837.559 836.649C831.352 842.642 824.942 849.062 818.329 855.909C815.569 858.762 812.622 861.406 809.489 863.839C808.723 864.431 808.004 865.083 807.339 865.789C802.739 870.696 799.582 873.839 797.869 875.219C792.169 879.826 784.702 885.666 775.469 892.739C775.428 892.768 775.38 892.786 775.33 892.789C775.28 892.793 775.23 892.782 775.187 892.759C775.144 892.736 775.108 892.701 775.086 892.658C775.063 892.616 775.054 892.567 775.059 892.519C775.252 889.572 776.749 887.029 779.549 884.889Z" fill="#2A495B"/>
<path d="M282.569 698.679C282.808 699.097 282.871 699.592 282.746 700.057C282.62 700.522 282.316 700.918 281.899 701.159L226.529 732.999C225.935 733.34 225.3 733.594 224.659 733.747C224.018 733.9 223.383 733.948 222.792 733.89C222.2 733.831 221.663 733.667 221.211 733.406C220.76 733.145 220.402 732.793 220.159 732.369L214.419 722.389C213.927 721.534 213.931 720.441 214.43 719.349C214.929 718.258 215.881 717.258 217.079 716.569L272.449 684.729C272.866 684.49 273.362 684.426 273.827 684.552C274.292 684.677 274.688 684.982 274.929 685.399L282.569 698.679Z" fill="#265A6B"/>
<path d="M798.769 697.749L805.669 686.179C805.847 685.879 806.082 685.617 806.362 685.409C806.641 685.2 806.959 685.049 807.298 684.963C807.636 684.878 807.987 684.86 808.333 684.911C808.678 684.961 809.009 685.08 809.309 685.259L864.219 717.999C864.785 718.336 865.205 718.872 865.398 719.503C865.59 720.133 865.54 720.813 865.259 721.409L859.469 733.639C859.311 733.973 859.086 734.271 858.807 734.513C858.528 734.754 858.201 734.935 857.848 735.044C857.495 735.152 857.123 735.185 856.756 735.141C856.39 735.097 856.036 734.977 855.719 734.789L799.689 701.389C799.389 701.211 799.127 700.975 798.918 700.696C798.71 700.416 798.558 700.098 798.473 699.76C798.387 699.422 798.369 699.07 798.42 698.725C798.471 698.38 798.589 698.048 798.769 697.749Z" fill="#265A6B"/>
<path d="M709.879 689.869C705.469 700.389 701.119 710.939 696.169 721.159C689.609 734.719 682.895 747.576 676.029 759.729C669.915 770.556 664.002 781.336 658.289 792.069C653.202 801.622 647.285 812.402 640.539 824.409C633.859 836.296 629.589 843.982 627.729 847.469C618.959 863.879 610.869 878.709 602.729 893.059C598.615 900.312 594.525 907.806 590.459 915.539C590.225 915.979 589.355 917.586 587.849 920.359C578.109 938.252 568.489 955.719 558.989 972.759C558.975 972.792 557.712 975.216 555.199 980.029C553.679 982.936 551.949 985.786 550.009 988.579C551.682 983.126 553.875 977.892 556.589 972.879C560.195 966.219 562.195 962.472 562.589 961.639C565.349 955.792 568.165 950.542 571.039 945.889C574.885 939.649 577.555 934.886 579.049 931.599C581.849 925.439 586.629 918.369 589.759 912.069C592.589 906.369 598.209 895.679 602.279 888.849C607.829 879.569 611.169 870.659 616.709 861.519C618.929 857.859 622.952 850.796 628.779 840.329C629.472 839.076 633.539 831.212 640.979 816.739C643.919 811.029 645.139 808.159 648.119 803.859C652.059 798.166 656.305 790.276 660.859 780.189C662.372 776.836 665.562 771.119 670.429 763.039C681.609 744.486 690.792 726.919 697.979 710.339C701.965 701.132 705.242 694.176 707.809 689.469C707.896 689.309 708.031 689.181 708.196 689.102C708.361 689.023 708.547 688.997 708.729 689.029C709.162 689.102 709.545 689.382 709.879 689.869Z" fill="#2A495B"/>
<path d="M933.569 752.359C923.339 772.299 911.219 790.579 898.209 808.579C893.149 815.579 888.122 822.069 883.129 828.049C865.135 849.616 845.525 869.659 824.299 888.179L823.089 888.289C823.033 888.295 822.977 888.286 822.926 888.263C822.875 888.24 822.831 888.203 822.799 888.157C822.767 888.11 822.748 888.057 822.745 888.001C822.741 887.945 822.753 887.889 822.779 887.839C823.739 885.912 824.752 884.429 825.819 883.389C831.749 877.579 835.709 873.429 840.809 869.089C848.339 862.679 853.459 856.279 860.709 849.309C867.329 842.939 873.159 835.189 878.839 829.159C882.259 825.519 884.775 822.576 886.389 820.329C888.689 817.109 892.509 812.929 895.899 808.079C903.599 797.059 910.419 787.289 916.969 776.219C922.562 766.766 926.745 759.666 929.519 754.919C930.832 752.672 932.182 751.819 933.569 752.359Z" fill="#2A495B"/>
<path d="M699.23 802.723L686.893 809.875C685.899 810.451 685.56 811.723 686.136 812.717L718.785 869.039C719.361 870.032 720.634 870.371 721.627 869.795L733.964 862.643C734.958 862.067 735.297 860.795 734.721 859.801L702.072 803.479C701.496 802.486 700.224 802.147 699.23 802.723Z" fill="#265A6B"/>
<path d="M371.299 851.399C370.439 850.579 369.985 849.549 369.939 848.309C369.919 847.604 370.107 846.909 370.479 846.309L391.599 812.099C391.678 811.971 391.703 811.816 391.668 811.667C391.632 811.519 391.539 811.39 391.409 811.309L382.739 805.959C382.491 805.805 382.214 805.705 381.925 805.666C381.636 805.626 381.342 805.648 381.061 805.728C380.781 805.809 380.52 805.948 380.296 806.136C380.071 806.324 379.888 806.556 379.759 806.819C378.592 809.186 377.029 811.542 375.069 813.889C372.309 817.199 369.679 823.929 366.639 828.679C363.839 833.069 362.039 836.759 359.149 840.979C357.035 844.052 353.892 848.992 349.719 855.799C349.172 856.692 348.335 857.439 347.209 858.039C347.074 858.112 346.918 858.132 346.77 858.095C346.622 858.058 346.493 857.966 346.409 857.839C346.102 857.372 346.145 856.822 346.539 856.189L378.319 803.299C378.454 803.072 378.655 802.891 378.894 802.78C379.133 802.67 379.4 802.634 379.659 802.679C381.079 802.912 382.572 803.472 384.139 804.359C387.985 806.532 391.385 808.372 394.339 809.879C394.42 809.919 394.493 809.975 394.553 810.044C394.613 810.113 394.659 810.193 394.687 810.279C394.716 810.366 394.728 810.457 394.721 810.548C394.714 810.639 394.69 810.728 394.649 810.809C391.469 817.389 389.182 821.816 387.789 824.089C382.249 833.156 376.752 842.259 371.299 851.399Z" fill="#2A495B"/>
<path d="M371.299 851.399C368.552 856.199 365.749 860.979 362.889 865.739C362.142 866.992 361.165 868.256 359.959 869.529C359.658 869.84 359.264 870.045 358.837 870.114C358.41 870.182 357.972 870.111 357.589 869.909C353.275 867.609 349.549 865.442 346.409 863.409C345.569 862.862 344.889 862.139 344.369 861.239C344.284 861.091 344.231 860.928 344.214 860.759C344.197 860.59 344.215 860.419 344.269 860.259C344.762 858.759 345.519 857.402 346.539 856.189C346.145 856.822 346.102 857.372 346.409 857.839C346.493 857.966 346.622 858.058 346.77 858.095C346.918 858.132 347.074 858.112 347.209 858.039C348.335 857.439 349.172 856.692 349.719 855.799C353.892 848.992 357.035 844.052 359.149 840.979C362.039 836.759 363.839 833.069 366.639 828.679C369.679 823.929 372.309 817.199 375.069 813.889C377.029 811.542 378.592 809.186 379.759 806.819C379.888 806.556 380.071 806.324 380.296 806.136C380.52 805.948 380.781 805.809 381.061 805.728C381.342 805.648 381.636 805.626 381.925 805.666C382.214 805.705 382.491 805.805 382.739 805.959L391.409 811.309C391.539 811.39 391.632 811.519 391.668 811.667C391.703 811.816 391.678 811.971 391.599 812.099L370.479 846.309C370.107 846.909 369.919 847.604 369.939 848.309C369.985 849.549 370.439 850.579 371.299 851.399Z" fill="#265A6B"/>
<path d="M803.439 848.099L786.312 863.63C786.115 863.808 786.101 864.111 786.279 864.308L786.44 864.485C786.618 864.682 786.922 864.697 787.118 864.519L804.245 848.988C804.442 848.81 804.457 848.507 804.279 848.31L804.117 848.133C803.939 847.936 803.636 847.921 803.439 848.099Z" fill="#4D7F8C"/>
<path d="M745.689 880.649C758.942 871.016 771.789 860.996 784.229 850.589L787.249 851.689C787.309 851.709 787.362 851.746 787.403 851.795C787.443 851.844 787.47 851.903 787.479 851.967C787.488 852.03 787.48 852.096 787.455 852.156C787.43 852.216 787.39 852.269 787.339 852.309C785.639 853.609 782.509 856.256 777.949 860.249C776.735 861.309 773.929 863.506 769.529 866.839C766.149 869.399 762.869 871.929 759.209 875.079C755.315 878.419 750.809 880.276 745.689 880.649Z" fill="#2A495B"/>
<path d="M725.42 898.044L711.778 905.145C711.46 905.311 711.336 905.704 711.502 906.022L711.52 906.058C711.686 906.376 712.078 906.5 712.397 906.334L726.039 899.232C726.357 899.067 726.481 898.674 726.315 898.356L726.297 898.32C726.131 898.002 725.739 897.878 725.42 898.044Z" fill="#4D7F8C"/>
<path d="M461.439 930.279L486.319 934.779C486.76 934.86 487.177 935.041 487.536 935.31C487.895 935.579 488.187 935.928 488.389 936.329L494.719 949.039C494.788 949.176 494.818 949.33 494.806 949.483C494.794 949.636 494.74 949.783 494.651 949.908C494.561 950.033 494.439 950.131 494.297 950.191C494.156 950.251 494.001 950.271 493.849 950.249C468.562 946.762 444.142 941.249 420.589 933.709C411.419 930.769 401.029 926.589 391.519 922.909C379.159 918.122 367.172 912.519 355.559 906.099C357.792 905.819 360.229 906.242 362.869 907.369C368.429 909.742 372.135 911.412 373.989 912.379C386.049 918.639 392.669 920.739 409.079 927.049C415.805 929.636 423.209 932.002 431.289 934.149C444.049 937.549 454.322 940.192 462.109 942.079C470.479 944.109 479.529 944.449 487.779 946.399C487.851 946.416 487.927 946.418 488 946.405C488.073 946.391 488.143 946.362 488.204 946.319C488.266 946.277 488.317 946.222 488.356 946.158C488.395 946.094 488.419 946.023 488.429 945.949C489.449 937.779 476.909 936.529 470.919 935.309C466.312 934.376 463.152 932.699 461.439 930.279Z" fill="#2A495B"/>
<path d="M726.949 909.429C722.599 912.269 718.379 915.329 713.799 917.559C705.212 921.726 700.822 923.899 700.629 924.079C700.54 924.161 700.436 924.224 700.323 924.263C700.209 924.303 700.089 924.318 699.969 924.309C699.202 924.249 697.869 924.729 695.969 925.749C693.342 927.162 689.532 928.742 684.539 930.489C679.732 932.176 675.805 933.459 672.759 934.339C658.872 938.352 644.532 941.999 629.739 945.279C619.812 947.479 609.422 949.109 598.569 950.169C598.469 950.181 598.368 950.164 598.278 950.121C598.187 950.078 598.111 950.01 598.058 949.925C598.004 949.84 597.976 949.742 597.976 949.642C597.976 949.542 598.005 949.444 598.059 949.359C600.172 945.872 602.302 941.936 604.449 937.549C604.935 936.562 605.642 935.692 606.569 934.939C606.849 934.711 607.19 934.572 607.549 934.539C622.822 933.106 640.529 929.329 660.669 923.209C675.895 918.582 689.249 913.256 700.729 907.229C701.249 908.876 700.845 910.162 699.519 911.089C697.459 912.529 694.449 914.106 690.489 915.819C683.595 918.806 676.439 921.479 669.019 923.839C663.019 925.746 655.612 927.592 646.799 929.379C633.759 932.019 622.675 934.352 613.549 936.379C608.539 937.489 603.939 940.239 604.529 945.679C604.536 945.75 604.557 945.819 604.593 945.881C604.628 945.943 604.676 945.997 604.733 946.04C604.791 946.082 604.857 946.112 604.927 946.127C604.996 946.143 605.069 946.143 605.139 946.129C612.989 944.639 625.669 943.779 635.019 941.259C635.519 941.119 638.439 940.509 643.779 939.429C652.389 937.689 659.979 935.229 669.259 932.459C671.289 931.859 673.369 930.749 675.719 930.239C676.245 930.119 677.109 929.822 678.309 929.349C693.669 923.219 709.239 915.679 723.859 907.499C724.006 907.415 724.17 907.365 724.34 907.352C724.509 907.34 724.68 907.367 724.839 907.429C725.765 907.802 726.469 908.469 726.949 909.429Z" fill="#2A495B"/>
<path d="M516.059 943.589L501.679 919.139C502.112 918.566 502.605 918.292 503.159 918.319C503.267 918.322 503.375 918.351 503.472 918.403C503.569 918.455 503.653 918.529 503.719 918.619C504.485 919.686 505.182 921.026 505.809 922.639C505.962 923.026 506.529 923.792 507.509 924.939C507.642 925.099 507.762 925.269 507.869 925.449C511.142 930.962 513.332 934.976 514.439 937.489C514.479 937.589 514.742 938.016 515.229 938.769C515.535 939.236 515.742 939.752 515.849 940.319C515.907 940.632 516.056 940.924 516.279 941.159C517.672 942.612 517.599 943.422 516.059 943.589Z" fill="#2A495B"/>
<path d="M768.459 931.459C767.919 932.039 767.255 932.459 766.469 932.719C766.291 932.781 766.139 932.902 766.039 933.062C765.939 933.222 765.897 933.412 765.919 933.599C765.925 933.706 765.925 933.819 765.919 933.939C765.909 934.135 765.856 934.327 765.763 934.501C765.669 934.674 765.538 934.823 765.379 934.939C756.159 941.629 749.869 945.099 738.479 951.529C736.685 952.536 734.829 953.419 732.909 954.179C733.235 953.406 733.239 952.836 732.919 952.469C732.87 952.411 732.807 952.367 732.737 952.341C732.667 952.315 732.592 952.307 732.519 952.319C730.172 952.659 728.132 953.156 726.399 953.809C723.012 955.082 716.549 957.606 707.009 961.379C698.249 964.839 691.745 967.249 687.499 968.609C670.032 974.189 656.249 978.052 646.149 980.199C631.989 983.199 619.882 985.192 609.829 986.179C608.739 986.289 606.509 986.259 605.159 986.499C599.319 987.506 593.439 988.129 587.519 988.369L587.059 988.209C586.905 988.159 586.773 988.057 586.685 987.921C586.596 987.786 586.557 987.624 586.573 987.463C586.59 987.302 586.661 987.151 586.774 987.036C586.888 986.92 587.038 986.847 587.199 986.829C594.372 985.909 600.922 985.176 606.849 984.629C618.139 983.589 630.949 981.509 640.579 979.399C650.492 977.239 658.622 975.429 664.969 973.969C671.975 972.349 682.725 968.949 697.219 963.769C704.452 961.189 717.985 955.852 737.819 947.759C737.092 948.419 736.882 948.946 737.189 949.339C737.244 949.409 737.321 949.459 737.407 949.483C737.494 949.506 737.585 949.501 737.669 949.469C739.189 948.869 740.725 948.089 742.279 947.129C745.292 945.269 749.552 942.399 755.059 938.519C755.271 938.366 755.499 938.239 755.739 938.139C757.552 937.359 759.025 936.226 760.159 934.739C760.792 933.579 761.915 932.682 763.529 932.049C763.628 932.009 763.729 931.986 763.829 931.979L768.459 931.459Z" fill="#4D7F8C"/>
<path d="M737.819 947.759C742.365 944.686 747.065 941.849 751.919 939.249C752.319 939.036 753.659 938.219 755.939 936.799C757.232 935.992 758.639 935.306 760.159 934.739C759.025 936.226 757.552 937.359 755.739 938.139C755.499 938.239 755.271 938.366 755.059 938.519C749.552 942.399 745.292 945.269 742.279 947.129C740.725 948.089 739.189 948.869 737.669 949.469C737.585 949.501 737.494 949.506 737.407 949.483C737.321 949.459 737.244 949.409 737.189 949.339C736.882 948.946 737.092 948.419 737.819 947.759Z" fill="#C0A15D"/>
<path d="M470.769 983.499C440.169 978.466 410.462 970.226 381.649 958.779C374.949 956.112 368.342 953.046 361.829 949.579C376.455 955.146 391.019 960.656 405.519 966.109C413.459 969.089 420.999 971.059 428.809 973.499C430.789 974.119 433.389 974.269 434.859 974.829C438.179 976.109 441.879 976.319 445.769 977.059C455.362 978.872 464.332 980.549 472.679 982.089C472.825 982.117 472.957 982.195 473.052 982.31C473.147 982.425 473.199 982.57 473.199 982.719V983.079C473.199 983.139 473.187 983.198 473.164 983.253C473.141 983.309 473.108 983.359 473.066 983.401C473.024 983.443 472.975 983.476 472.92 983.498C472.865 983.52 472.807 983.53 472.749 983.529L470.769 983.499Z" fill="#4D7F8C"/>
<path d="M732.909 954.179C702.962 968.206 671.839 978.499 639.539 985.059C618.989 989.229 598.759 991.159 578.059 992.439C577.159 992.492 575.945 992.692 574.419 993.039C574.323 993.06 574.224 993.054 574.132 993.02C574.04 992.986 573.96 992.927 573.901 992.849C573.842 992.771 573.806 992.678 573.799 992.58C573.791 992.483 573.812 992.385 573.859 992.299L591.659 960.259C591.81 959.991 592.025 959.765 592.284 959.599C592.544 959.434 592.841 959.334 593.149 959.309L604.629 958.439C604.382 959.732 603.189 960.596 601.049 961.029C596.119 962.019 592.729 963.179 590.149 967.889C587.482 972.756 584.582 977.526 581.449 982.199C580.329 983.869 579.149 986.489 578.329 988.349C578.282 988.454 578.264 988.569 578.276 988.683C578.289 988.798 578.331 988.906 578.399 988.999C578.467 989.091 578.558 989.164 578.664 989.21C578.769 989.255 578.885 989.272 578.999 989.259L587.519 988.369C593.439 988.129 599.319 987.506 605.159 986.499C606.509 986.259 608.739 986.289 609.829 986.179C619.882 985.192 631.989 983.199 646.149 980.199C656.249 978.052 670.032 974.189 687.499 968.609C691.745 967.249 698.249 964.839 707.009 961.379C716.549 957.606 723.012 955.082 726.399 953.809C728.132 953.156 730.172 952.659 732.519 952.319C732.592 952.307 732.667 952.315 732.737 952.341C732.807 952.367 732.87 952.411 732.919 952.469C733.239 952.836 733.235 953.406 732.909 954.179Z" fill="#2A495B"/>
<rect x="40" y="4" width="58.8125" height="30" rx="3" fill="#444444"/>
<rect x="40.5" y="4.5" width="57.8125" height="29" rx="2.5" stroke="white" stroke-opacity="0.0980392"/>
<path d="M47.7656 14V22H46.8438V14H47.7656ZM51.8916 22.125C51.3499 22.125 50.8747 21.9961 50.4658 21.7383C50.0596 21.4805 49.7419 21.1198 49.5127 20.6562C49.2861 20.1927 49.1729 19.651 49.1729 19.0312C49.1729 18.4062 49.2861 17.8607 49.5127 17.3945C49.7419 16.9284 50.0596 16.5664 50.4658 16.3086C50.8747 16.0508 51.3499 15.9219 51.8916 15.9219C52.4333 15.9219 52.9072 16.0508 53.3135 16.3086C53.7223 16.5664 54.04 16.9284 54.2666 17.3945C54.4958 17.8607 54.6104 18.4062 54.6104 19.0312C54.6104 19.651 54.4958 20.1927 54.2666 20.6562C54.04 21.1198 53.7223 21.4805 53.3135 21.7383C52.9072 21.9961 52.4333 22.125 51.8916 22.125ZM51.8916 21.2969C52.3031 21.2969 52.6416 21.1914 52.9072 20.9805C53.1729 20.7695 53.3695 20.4922 53.4971 20.1484C53.6247 19.8047 53.6885 19.4323 53.6885 19.0312C53.6885 18.6302 53.6247 18.2565 53.4971 17.9102C53.3695 17.5638 53.1729 17.2839 52.9072 17.0703C52.6416 16.8568 52.3031 16.75 51.8916 16.75C51.4801 16.75 51.1416 16.8568 50.876 17.0703C50.6104 17.2839 50.4137 17.5638 50.2861 17.9102C50.1585 18.2565 50.0947 18.6302 50.0947 19.0312C50.0947 19.4323 50.1585 19.8047 50.2861 20.1484C50.4137 20.4922 50.6104 20.7695 50.876 20.9805C51.1416 21.1914 51.4801 21.2969 51.8916 21.2969ZM58.4395 24.375C57.9941 24.375 57.6113 24.3177 57.291 24.2031C56.9707 24.0911 56.7038 23.9427 56.4902 23.7578C56.2793 23.5755 56.1113 23.3802 55.9863 23.1719L56.7207 22.6563C56.804 22.7656 56.9095 22.8906 57.0371 23.0312C57.1647 23.1745 57.3392 23.2982 57.5605 23.4023C57.7845 23.5091 58.0775 23.5625 58.4395 23.5625C58.9238 23.5625 59.3236 23.4453 59.6387 23.2109C59.9538 22.9766 60.1113 22.6094 60.1113 22.1094V20.8906H60.0332C59.9655 21 59.8691 21.1354 59.7441 21.2969C59.6217 21.4557 59.4447 21.5977 59.2129 21.7227C58.9837 21.8451 58.6738 21.9062 58.2832 21.9062C57.7988 21.9062 57.3639 21.7917 56.9785 21.5625C56.5957 21.3333 56.2923 21 56.0684 20.5625C55.847 20.125 55.7363 19.5937 55.7363 18.9687C55.7363 18.3542 55.8444 17.819 56.0605 17.3633C56.2767 16.9049 56.5775 16.5508 56.9629 16.3008C57.3483 16.0482 57.7936 15.9219 58.2988 15.9219C58.6895 15.9219 58.9993 15.987 59.2285 16.1172C59.4603 16.2448 59.6374 16.3906 59.7598 16.5547C59.8848 16.7161 59.9811 16.849 60.0488 16.9531H60.1426V16H61.0332V22.1719C61.0332 22.6875 60.916 23.1068 60.6816 23.4297C60.4499 23.7552 60.1374 23.9935 59.7441 24.1445C59.3535 24.2982 58.9186 24.375 58.4395 24.375ZM58.4082 21.0781C58.778 21.0781 59.0905 20.9935 59.3457 20.8242C59.6009 20.6549 59.7949 20.4115 59.9277 20.0938C60.0605 19.776 60.127 19.3958 60.127 18.9531C60.127 18.5208 60.0618 18.1393 59.9316 17.8086C59.8014 17.4779 59.6087 17.2187 59.3535 17.0312C59.0983 16.8437 58.7832 16.75 58.4082 16.75C58.0176 16.75 57.6921 16.849 57.4316 17.0469C57.1738 17.2448 56.9798 17.5104 56.8496 17.8438C56.722 18.1771 56.6582 18.5469 56.6582 18.9531C56.6582 19.3698 56.7233 19.7383 56.8535 20.0586C56.9863 20.3763 57.1816 20.6263 57.4395 20.8086C57.6999 20.9883 58.0228 21.0781 58.4082 21.0781ZM65.1582 22.125C64.6165 22.125 64.1413 21.9961 63.7324 21.7383C63.3262 21.4805 63.0085 21.1198 62.7793 20.6562C62.5527 20.1927 62.4395 19.651 62.4395 19.0312C62.4395 18.4062 62.5527 17.8607 62.7793 17.3945C63.0085 16.9284 63.3262 16.5664 63.7324 16.3086C64.1413 16.0508 64.6165 15.9219 65.1582 15.9219C65.6999 15.9219 66.1738 16.0508 66.5801 16.3086C66.9889 16.5664 67.3066 16.9284 67.5332 17.3945C67.7624 17.8607 67.877 18.4062 67.877 19.0312C67.877 19.651 67.7624 20.1927 67.5332 20.6562C67.3066 21.1198 66.9889 21.4805 66.5801 21.7383C66.1738 21.9961 65.6999 22.125 65.1582 22.125ZM65.1582 21.2969C65.5697 21.2969 65.9082 21.1914 66.1738 20.9805C66.4395 20.7695 66.6361 20.4922 66.7637 20.1484C66.8913 19.8047 66.9551 19.4323 66.9551 19.0312C66.9551 18.6302 66.8913 18.2565 66.7637 17.9102C66.6361 17.5638 66.4395 17.2839 66.1738 17.0703C65.9082 16.8568 65.5697 16.75 65.1582 16.75C64.7467 16.75 64.4082 16.8568 64.1426 17.0703C63.877 17.2839 63.6803 17.5638 63.5527 17.9102C63.4251 18.2565 63.3613 18.6302 63.3613 19.0312C63.3613 19.4323 63.4251 19.8047 63.5527 20.1484C63.6803 20.4922 63.877 20.7695 64.1426 20.9805C64.4082 21.1914 64.7467 21.2969 65.1582 21.2969ZM72.7061 18C72.7061 17.0156 72.8337 16.1107 73.0889 15.2852C73.3467 14.457 73.7139 13.6953 74.1904 13H75.0029C74.8154 13.2578 74.6396 13.5755 74.4756 13.9531C74.3141 14.3281 74.1722 14.7409 74.0498 15.1914C73.9274 15.6393 73.8311 16.1029 73.7607 16.582C73.693 17.0612 73.6592 17.5339 73.6592 18C73.6592 18.6198 73.7191 19.2487 73.8389 19.8867C73.9587 20.5247 74.1201 21.1172 74.3232 21.6641C74.5264 22.2109 74.7529 22.6563 75.0029 23H74.1904C73.7139 22.3047 73.3467 21.5443 73.0889 20.7187C72.8337 19.8906 72.7061 18.9844 72.7061 18ZM79.1602 14V22H78.1914V15.0156H78.1445L76.1914 16.3125V15.3281L78.1914 14H79.1602ZM83.4453 18C83.4453 18.9844 83.3164 19.8906 83.0586 20.7187C82.8034 21.5443 82.4375 22.3047 81.9609 23H81.1484C81.3359 22.7422 81.5104 22.4245 81.6719 22.0469C81.8359 21.6719 81.9792 21.2604 82.1016 20.8125C82.224 20.362 82.319 19.8971 82.3867 19.418C82.457 18.9362 82.4922 18.4635 82.4922 18C82.4922 17.3802 82.4323 16.7513 82.3125 16.1133C82.1927 15.4753 82.0313 14.8828 81.8281 14.3359C81.625 13.7891 81.3984 13.3437 81.1484 13H81.9609C82.4375 13.6953 82.8034 14.457 83.0586 15.2852C83.3164 16.1107 83.4453 17.0156 83.4453 18ZM91.3525 14V22H90.3838V15.0156H90.3369L88.3838 16.3125V15.3281L90.3838 14H91.3525Z" fill="white"/>
</svg>
